<?xml version="1.0" encoding="UTF-8"?>
<svg width="30px" height="30px" viewBox="0 0 30 30" version="1.1" xmlns="http://www.w3.org/2000/svg" xmlns:xlink="http://www.w3.org/1999/xlink">
    <!-- Generator: Sketch 49 (51002) - http://www.bohemiancoding.com/sketch -->
    <title>tools/TradeIn/SVG</title>
    <desc>Created with Sketch.</desc>
    <defs></defs>
    <g id="tools/TradeIn/SVG" stroke="none" stroke-width="1" fill="none" fill-rule="evenodd">
        <path d="M20.2075,15.8952 C19.5185,15.8952 19.0695,16.3442 19.0695,17.0032 C19.0695,17.6622 19.5185,18.1112 20.2075,18.1112 C20.8965,18.1112 21.3455,17.6622 21.3455,17.0032 C21.3455,16.3442 20.8965,15.8952 20.2075,15.8952 Z M9.5165,15.8952 C8.8275,15.8952 8.3785,16.3442 8.3785,17.0032 C8.3785,17.6622 8.8275,18.1112 9.5165,18.1112 C10.2055,18.1112 10.6545,17.6622 10.6545,17.0032 C10.6545,16.3442 10.2055,15.8952 9.5165,15.8952 Z M11.6425,17.0032 L18.0815,17.0032 C18.0815,15.8052 18.9795,14.9072 20.2075,14.9072 C21.4355,14.9072 22.3335,15.8052 22.3335,17.0032 C22.3335,18.2012 21.4355,19.0992 20.2075,19.0992 C19.3685,19.0992 18.6805,18.6802 18.3205,18.0212 L11.4035,18.0212 C11.0435,18.6802 10.3555,19.0992 9.5165,19.0992 C8.2885,19.0992 7.3905,18.2012 7.3905,17.0032 C7.3905,15.8052 8.2885,14.9072 9.5165,14.9072 C10.7445,14.9072 11.6425,15.8052 11.6425,17.0032 Z M5.2345,15.1462 C5.2345,13.6792 5.3245,13.4692 6.7915,11.7322 C8.2885,9.9362 9.0075,9.5162 10.5945,9.5162 L14.3975,9.5162 C16.1045,9.5162 17.0335,9.8162 18.3805,10.7442 L20.6565,12.4512 L22.1245,12.8112 C23.7115,13.1702 24.4595,14.0982 24.4595,15.6252 C24.4595,16.3742 24.2505,17.0332 23.8605,17.5722 L23.0225,16.9732 C23.3215,16.5242 23.4115,16.1942 23.4115,15.6252 C23.4115,14.5772 22.8725,14.0082 21.5255,13.6792 L20.0575,13.3202 L17.8415,11.6432 C16.7635,10.8342 15.8355,10.5352 14.3975,10.5352 L10.5945,10.5352 C9.3665,10.5352 8.9175,10.8342 7.5405,12.4812 C6.4025,13.8592 6.2825,14.0382 6.2825,15.2962 L6.2825,15.9252 C6.2825,16.3742 6.3725,16.6442 6.6415,16.9132 L5.9235,17.5722 C5.4435,17.1532 5.2345,16.6442 5.2345,15.9252 L5.2345,15.1462 Z M27.7545,14.8472 L26.6165,14.8472 C26.6165,7.7202 22.2735,3.0782 14.8775,3.0782 C11.2235,3.0782 8.0495,4.5752 5.8035,6.9412 C6.7315,6.7012 7.6595,6.4022 8.6185,6.0432 L9.4265,6.7612 C7.8695,7.3302 6.6415,7.6902 4.8445,7.9892 L4.1565,7.3602 C4.3055,5.9532 4.6355,4.5152 5.2045,2.8682 L6.0125,3.6172 C5.5635,4.8752 5.2945,5.5632 5.1145,6.2222 C7.5405,3.6472 10.9545,2.0002 14.8775,2.0002 C22.9325,2.0002 27.7545,7.1212 27.7545,14.8472 Z M24.6395,23.4422 C22.2435,25.9872 18.9795,27.6642 15.1765,27.6642 C6.9415,27.6642 2.0005,22.5432 2.0005,14.8172 L3.1375,14.8172 C3.1375,21.9442 7.6005,26.5862 15.1765,26.5862 C18.7105,26.5862 21.7345,25.0592 23.9505,22.7232 C23.0225,22.9622 22.0945,23.2622 21.1355,23.6212 L20.3275,22.9022 C21.8845,22.3342 23.1125,21.9742 24.9095,21.6752 L25.5975,22.3042 C25.4485,23.7112 25.1185,25.1482 24.5495,26.7962 L23.7415,26.0472 C24.1905,24.7892 24.4595,24.1002 24.6395,23.4422 Z" id="Fill-1" fill="#FFCE00"></path>
    </g>
</svg>