<?xml version="1.0" encoding="UTF-8"?>
<svg width="30px" height="30px" viewBox="0 0 30 30" version="1.1" xmlns="http://www.w3.org/2000/svg" xmlns:xlink="http://www.w3.org/1999/xlink">
    <!-- Generator: Sketch 49 (51002) - http://www.bohemiancoding.com/sketch -->
    <title>reassurance/Game/SVG</title>
    <desc>Created with Sketch.</desc>
    <defs>
        <path d="M21.9141856,11.8980798 C24.352014,11.4350074 25.5288967,9.62481536 25.5288967,6.67799114 L25.5288967,5.92023634 L22.58669,5.92023634 L22.58669,6.67799114 C22.58669,8.69867061 22.3345009,10.4667651 21.9141856,11.8980798 Z M12.0367776,25.5376662 L18.0052539,25.5376662 L18.0052539,26.9689808 L12.0367776,26.9689808 L12.0367776,25.5376662 Z M10.3134851,24.0221566 L9.43082312,28.5265879 L20.6112084,28.5265879 L19.7285464,24.0221566 L10.3134851,24.0221566 Z M15.0210158,15.8552437 C18.971979,15.8552437 21.1155867,12.6558346 21.1155867,6.72008863 L21.1155867,2.93131462 L8.96847636,2.93131462 L8.96847636,6.67799114 C8.96847636,12.5716396 11.1120841,15.8552437 15.0210158,15.8552437 Z M8.21190893,11.9401773 C7.74956217,10.4667651 7.49737303,8.69867061 7.49737303,6.67799114 L7.49737303,5.92023634 L4.47110333,5.92023634 L4.47110333,6.67799114 C4.47110333,9.66691285 5.69001751,11.4771049 8.21190893,11.9401773 Z M22.58669,4.48892171 L27,4.48892171 L27,6.67799114 C27,10.5930576 24.8984238,13.1189069 21.3257443,13.4135894 C20.1908932,15.7289513 18.2994746,17.0339734 15.7775832,17.2444609 L15.7775832,22.506647 L20.9894921,22.506647 L22.5446585,30 L7.49737303,30 L9.0525394,22.506647 L14.2644483,22.506647 L14.2644483,17.2444609 C11.7845884,17.0339734 9.9352014,15.7289513 8.80035026,13.4135894 C5.14360771,13.1610044 3,10.6351551 3,6.67799114 L3,4.48892171 L7.49737303,4.48892171 L7.49737303,1.5 L22.58669,1.5 L22.58669,4.48892171 Z" id="path-1"></path>
    </defs>
    <g id="reassurance/Game/SVG" stroke="none" stroke-width="1" fill="none" fill-rule="evenodd">
        <mask id="mask-2" fill="white">
            <use xlink:href="#path-1"></use>
        </mask>
        <use id="ICON_GAME_02" fill="#FFCE33" xlink:href="#path-1"></use>
    </g>
</svg>