<svg xmlns="http://www.w3.org/2000/svg" xlink="http://www.w3.org/1999/xlink" width="0" height="0" style="display:none;"><symbol viewBox="0 0 24 24" id="menu-fill"><path fill="none" d="M0 0h24v24H0z"/><path d="M3 4h18v2H3V4zm0 7h18v2H3v-2zm0 7h18v2H3v-2z"/></symbol><symbol viewBox="0 0 24 24" id="video-fill"><path fill="none" d="M0 0h24v24H0z"/><path d="M3 3.993C3 3.445 3.445 3 3.993 3h16.014c.548 0 .993.445.993.993v16.014a.994.994 0 0 1-.993.993H3.993A.994.994 0 0 1 3 20.007V3.993zm7.622 4.422a.4.4 0 0 0-.622.332v6.506a.4.4 0 0 0 .622.332l4.879-3.252a.4.4 0 0 0 0-.666l-4.88-3.252z"/></symbol><symbol viewBox="0 0 24 24" id="video-line"><path fill="none" d="M0 0h24v24H0z"/><path d="M3 3.993C3 3.445 3.445 3 3.993 3h16.014c.548 0 .993.445.993.993v16.014a.994.994 0 0 1-.993.993H3.993A.994.994 0 0 1 3 20.007V3.993zM5 5v14h14V5H5zm5.622 3.415l4.879 3.252a.4.4 0 0 1 0 .666l-4.88 3.252a.4.4 0 0 1-.621-.332V8.747a.4.4 0 0 1 .622-.332z"/></symbol><symbol viewBox="0 0 24 24" id="surround-sound-line"><path fill="none" d="M0 0h24v24H0z"/><path d="M4 5v14h16V5H4zM3 3h18a1 1 0 0 1 1 1v16a1 1 0 0 1-1 1H3a1 1 0 0 1-1-1V4a1 1 0 0 1 1-1zm4.05 4.121l1.414 1.415A4.984 4.984 0 0 0 7 12.07c0 1.38.56 2.63 1.464 3.536L7.05 17.02A6.978 6.978 0 0 1 5 12.07c0-1.933.784-3.683 2.05-4.95zm9.9 0a6.978 6.978 0 0 1 2.05 4.95 6.978 6.978 0 0 1-2.05 4.95l-1.414-1.414A4.984 4.984 0 0 0 17 12.07c0-1.38-.56-2.63-1.464-3.535L16.95 7.12zM12 13.071a1 1 0 1 0 0-2 1 1 0 0 0 0 2zm0 2a3 3 0 1 1 0-6 3 3 0 0 1 0 6z"/></symbol><symbol viewBox="0 0 24 24" id="surround-sound-fill"><path fill="none" d="M0 0h24v24H0z"/><path d="M3 3h18a1 1 0 0 1 1 1v16a1 1 0 0 1-1 1H3a1 1 0 0 1-1-1V4a1 1 0 0 1 1-1zm4.05 4.121A6.978 6.978 0 0 0 5 12.071c0 1.933.784 3.683 2.05 4.95l1.414-1.414A4.984 4.984 0 0 1 7 12.07c0-1.38.56-2.63 1.464-3.535L7.05 7.12zm9.9 0l-1.414 1.415A4.984 4.984 0 0 1 17 12.07c0 1.38-.56 2.63-1.464 3.536l1.414 1.414A6.978 6.978 0 0 0 19 12.07a6.978 6.978 0 0 0-2.05-4.95zM12 15.071a3 3 0 1 0 0-6 3 3 0 0 0 0 6zm0-2a1 1 0 1 1 0-2 1 1 0 0 1 0 2z"/></symbol><symbol viewBox="0 0 24 24" id="image-line"><path fill="none" d="M0 0h24v24H0z"/><path d="M4.828 21l-.02.02-.021-.02H2.992A.993.993 0 0 1 2 20.007V3.993A1 1 0 0 1 2.992 3h18.016c.548 0 .992.445.992.993v16.014a1 1 0 0 1-.992.993H4.828zM20 15V5H4v14L14 9l6 6zm0 2.828l-6-6L6.828 19H20v-1.172zM8 11a2 2 0 1 1 0-4 2 2 0 0 1 0 4z"/></symbol><symbol viewBox="0 0 24 24" id="image-fill"><path fill="none" d="M0 0h24v24H0z"/><path d="M20 5H4v14l9.292-9.294a1 1 0 0 1 1.414 0L20 15.01V5zM2 3.993A1 1 0 0 1 2.992 3h18.016c.548 0 .992.445.992.993v16.014a1 1 0 0 1-.992.993H2.992A.993.993 0 0 1 2 20.007V3.993zM8 11a2 2 0 1 1 0-4 2 2 0 0 1 0 4z"/></symbol><symbol viewBox="0 0 24 24" id="link"><path fill="none" d="M0 0h24v24H0z"/><path d="M18.364 15.536L16.95 14.12l1.414-1.414a5 5 0 1 0-7.071-7.071L9.879 7.05 8.464 5.636 9.88 4.222a7 7 0 0 1 9.9 9.9l-1.415 1.414zm-2.828 2.828l-1.415 1.414a7 7 0 0 1-9.9-9.9l1.415-1.414L7.05 9.88l-1.414 1.414a5 5 0 1 0 7.071 7.071l1.414-1.414 1.415 1.414zm-.708-10.607l1.415 1.415-7.071 7.07-1.415-1.414 7.071-7.07z"/></symbol><symbol viewBox="0 0 24 24" id="home-4-fill"><path fill="none" d="M0 0h24v24H0z"/><path d="M20 20a1 1 0 0 1-1 1H5a1 1 0 0 1-1-1v-9H1l10.327-9.388a1 1 0 0 1 1.346 0L23 11h-3v9zm-9-7v6h2v-6h-2z"/></symbol><symbol viewBox="0 0 24 24" id="home-4-line"><path fill="none" d="M0 0h24v24H0z"/><path d="M19 21H5a1 1 0 0 1-1-1v-9H1l10.327-9.388a1 1 0 0 1 1.346 0L23 11h-3v9a1 1 0 0 1-1 1zm-6-2h5V9.157l-6-5.454-6 5.454V19h5v-6h2v6z"/></symbol><symbol viewBox="0 0 24 24" id="instagram-fill"><path fill="none" d="M0 0h24v24H0z"/><path d="M12 2c2.717 0 3.056.01 4.122.06 1.065.05 1.79.217 2.428.465.66.254 1.216.598 1.772 1.153a4.908 4.908 0 0 1 1.153 1.772c.247.637.415 1.363.465 2.428.047 1.066.06 1.405.06 4.122 0 2.717-.01 3.056-.06 4.122-.05 1.065-.218 1.79-.465 2.428a4.883 4.883 0 0 1-1.153 1.772 4.915 4.915 0 0 1-1.772 1.153c-.637.247-1.363.415-2.428.465-1.066.047-1.405.06-4.122.06-2.717 0-3.056-.01-4.122-.06-1.065-.05-1.79-.218-2.428-.465a4.89 4.89 0 0 1-1.772-1.153 4.904 4.904 0 0 1-1.153-1.772c-.248-.637-.415-1.363-.465-2.428C2.013 15.056 2 14.717 2 12c0-2.717.01-3.056.06-4.122.05-1.066.217-1.79.465-2.428a4.88 4.88 0 0 1 1.153-1.772A4.897 4.897 0 0 1 5.45 2.525c.638-.248 1.362-.415 2.428-.465C8.944 2.013 9.283 2 12 2zm0 5a5 5 0 1 0 0 10 5 5 0 0 0 0-10zm6.5-.25a1.25 1.25 0 0 0-2.5 0 1.25 1.25 0 0 0 2.5 0zM12 9a3 3 0 1 1 0 6 3 3 0 0 1 0-6z"/></symbol><symbol viewBox="0 0 24 24" id="instagram-line"><path fill="none" d="M0 0h24v24H0z"/><path d="M12 9a3 3 0 1 0 0 6 3 3 0 0 0 0-6zm0-2a5 5 0 1 1 0 10 5 5 0 0 1 0-10zm6.5-.25a1.25 1.25 0 0 1-2.5 0 1.25 1.25 0 0 1 2.5 0zM12 4c-2.474 0-2.878.007-4.029.058-.784.037-1.31.142-1.798.332-.434.168-.747.369-1.08.703a2.89 2.89 0 0 0-.704 1.08c-.19.49-.295 1.015-.331 1.798C4.006 9.075 4 9.461 4 12c0 2.474.007 2.878.058 4.029.037.783.142 1.31.331 1.797.17.435.37.748.702 1.08.337.336.65.537 1.08.703.494.191 1.02.297 1.8.333C9.075 19.994 9.461 20 12 20c2.474 0 2.878-.007 4.029-.058.782-.037 1.309-.142 1.797-.331.433-.169.748-.37 1.08-.702.337-.337.538-.65.704-1.08.19-.493.296-1.02.332-1.8.052-1.104.058-1.49.058-4.029 0-2.474-.007-2.878-.058-4.029-.037-.782-.142-1.31-.332-1.798a2.911 2.911 0 0 0-.703-1.08 2.884 2.884 0 0 0-1.08-.704c-.49-.19-1.016-.295-1.798-.331C14.925 4.006 14.539 4 12 4zm0-2c2.717 0 3.056.01 4.122.06 1.065.05 1.79.217 2.428.465.66.254 1.216.598 1.772 1.153a4.908 4.908 0 0 1 1.153 1.772c.247.637.415 1.363.465 2.428.047 1.066.06 1.405.06 4.122 0 2.717-.01 3.056-.06 4.122-.05 1.065-.218 1.79-.465 2.428a4.883 4.883 0 0 1-1.153 1.772 4.915 4.915 0 0 1-1.772 1.153c-.637.247-1.363.415-2.428.465-1.066.047-1.405.06-4.122.06-2.717 0-3.056-.01-4.122-.06-1.065-.05-1.79-.218-2.428-.465a4.89 4.89 0 0 1-1.772-1.153 4.904 4.904 0 0 1-1.153-1.772c-.248-.637-.415-1.363-.465-2.428C2.013 15.056 2 14.717 2 12c0-2.717.01-3.056.06-4.122.05-1.066.217-1.79.465-2.428a4.88 4.88 0 0 1 1.153-1.772A4.897 4.897 0 0 1 5.45 2.525c.638-.248 1.362-.415 2.428-.465C8.944 2.013 9.283 2 12 2z"/></symbol><symbol viewBox="0 0 24 24" id="telegram-line"><path fill="none" d="M0 0h24v24H0z"/><path d="M12 20a8 8 0 1 0 0-16 8 8 0 0 0 0 16zm0 2C6.477 22 2 17.523 2 12S6.477 2 12 2s10 4.477 10 10-4.477 10-10 10zm-3.11-8.83l-2.498-.779c-.54-.165-.543-.537.121-.804l9.733-3.76c.565-.23.885.061.702.79l-1.657 7.82c-.116.557-.451.69-.916.433l-2.551-1.888-1.189 1.148c-.122.118-.221.219-.409.244-.187.026-.341-.03-.454-.34l-.87-2.871-.012.008z"/></symbol><symbol viewBox="0 0 24 24" id="telegram-fill"><path fill="none" d="M0 0h24v24H0z"/><path d="M12 22C6.477 22 2 17.523 2 12S6.477 2 12 2s10 4.477 10 10-4.477 10-10 10zm-3.11-8.83l.013-.007.87 2.87c.112.311.266.367.453.341.188-.025.287-.126.41-.244l1.188-1.148 2.55 1.888c.466.257.801.124.917-.432l1.657-7.822c.183-.728-.137-1.02-.702-.788l-9.733 3.76c-.664.266-.66.638-.12.803l2.497.78z"/></symbol><symbol viewBox="0 0 24 24" id="whatsapp-line"><path fill="none" d="M0 0h24v24H0z"/><path d="M7.253 18.494l.724.423A7.953 7.953 0 0 0 12 20a8 8 0 1 0-8-8c0 1.436.377 2.813 1.084 4.024l.422.724-.653 2.401 2.4-.655zM2.004 22l1.352-4.968A9.954 9.954 0 0 1 2 12C2 6.477 6.477 2 12 2s10 4.477 10 10-4.477 10-10 10a9.954 9.954 0 0 1-5.03-1.355L2.004 22zM8.391 7.308c.134-.01.269-.01.403-.004.054.004.108.01.162.016.159.018.334.115.393.249.298.676.588 1.357.868 2.04.062.152.025.347-.093.537a4.38 4.38 0 0 1-.263.372c-.113.145-.356.411-.356.411s-.099.118-.061.265c.014.056.06.137.102.205l.059.095c.256.427.6.86 1.02 1.268.12.116.237.235.363.346.468.413.998.75 1.57 1l.005.002c.085.037.128.057.252.11.062.026.126.049.191.066a.35.35 0 0 0 .367-.13c.724-.877.79-.934.796-.934v.002a.482.482 0 0 1 .378-.127c.06.004.121.015.177.04.531.243 1.4.622 1.4.622l.582.261c.098.047.187.158.19.265.004.067.01.175-.013.373-.032.259-.11.57-.188.733a1.155 1.155 0 0 1-.21.302 2.378 2.378 0 0 1-.33.288 3.71 3.71 0 0 1-.125.09 5.024 5.024 0 0 1-.383.22 1.99 1.99 0 0 1-.833.23c-.185.01-.37.024-.556.014-.008 0-.568-.087-.568-.087a9.448 9.448 0 0 1-3.84-2.046c-.226-.199-.435-.413-.649-.626-.89-.885-1.562-1.84-1.97-2.742A3.47 3.47 0 0 1 6.9 9.62a2.729 2.729 0 0 1 .564-1.68c.073-.094.142-.192.261-.305.127-.12.207-.184.294-.228a.961.961 0 0 1 .371-.1z"/></symbol><symbol viewBox="0 0 24 24" id="whatsapp-fill"><path fill="none" d="M0 0h24v24H0z"/><path d="M2.004 22l1.352-4.968A9.954 9.954 0 0 1 2 12C2 6.477 6.477 2 12 2s10 4.477 10 10-4.477 10-10 10a9.954 9.954 0 0 1-5.03-1.355L2.004 22zM8.391 7.308a.961.961 0 0 0-.371.1 1.293 1.293 0 0 0-.294.228c-.12.113-.188.211-.261.306A2.729 2.729 0 0 0 6.9 9.62c.002.49.13.967.33 1.413.409.902 1.082 1.857 1.971 2.742.214.213.423.427.648.626a9.448 9.448 0 0 0 3.84 2.046l.569.087c.185.01.37-.004.556-.013a1.99 1.99 0 0 0 .833-.231c.166-.088.244-.132.383-.22 0 0 .043-.028.125-.09.135-.1.218-.171.33-.288.083-.086.155-.187.21-.302.078-.163.156-.474.188-.733.024-.198.017-.306.014-.373-.004-.107-.093-.218-.19-.265l-.582-.261s-.87-.379-1.401-.621a.498.498 0 0 0-.177-.041.482.482 0 0 0-.378.127v-.002c-.005 0-.072.057-.795.933a.35.35 0 0 1-.368.13 1.416 1.416 0 0 1-.191-.066c-.124-.052-.167-.072-.252-.109l-.005-.002a6.01 6.01 0 0 1-1.57-1c-.126-.11-.243-.23-.363-.346a6.296 6.296 0 0 1-1.02-1.268l-.059-.095a.923.923 0 0 1-.102-.205c-.038-.147.061-.265.061-.265s.243-.266.356-.41a4.38 4.38 0 0 0 .263-.373c.118-.19.155-.385.093-.536-.28-.684-.57-1.365-.868-2.041-.059-.134-.234-.23-.393-.249-.054-.006-.108-.012-.162-.016a3.385 3.385 0 0 0-.403.004z"/></symbol><symbol viewBox="0 0 24 24" id="twitter-fill"><path fill="none" d="M0 0h24v24H0z"/><path d="M22.162 5.656a8.384 8.384 0 0 1-2.402.658A4.196 4.196 0 0 0 21.6 4c-.82.488-1.719.83-2.656 1.015a4.182 4.182 0 0 0-7.126 3.814 11.874 11.874 0 0 1-8.62-4.37 4.168 4.168 0 0 0-.566 2.103c0 1.45.738 2.731 1.86 3.481a4.168 4.168 0 0 1-1.894-.523v.052a4.185 4.185 0 0 0 3.355 4.101 4.21 4.21 0 0 1-1.89.072A4.185 4.185 0 0 0 7.97 16.65a8.394 8.394 0 0 1-6.191 1.732 11.83 11.83 0 0 0 6.41 1.88c7.693 0 11.9-6.373 11.9-11.9 0-.18-.005-.362-.013-.54a8.496 8.496 0 0 0 2.087-2.165z"/></symbol><symbol viewBox="0 0 24 24" id="time-line"><path fill="none" d="M0 0h24v24H0z"/><path d="M12 22C6.477 22 2 17.523 2 12S6.477 2 12 2s10 4.477 10 10-4.477 10-10 10zm0-2a8 8 0 1 0 0-16 8 8 0 0 0 0 16zm1-8h4v2h-6V7h2v5z"/></symbol><symbol viewBox="0 0 24 24" id="time-fill"><path fill="none" d="M0 0h24v24H0z"/><path d="M12 22C6.477 22 2 17.523 2 12S6.477 2 12 2s10 4.477 10 10-4.477 10-10 10zm1-10V7h-2v7h6v-2h-4z"/></symbol><symbol viewBox="0 0 24 24" id="chat-1-line"><path fill="none" d="M0 0h24v24H0z"/><path d="M10 3h4a8 8 0 1 1 0 16v3.5c-5-2-12-5-12-11.5a8 8 0 0 1 8-8zm2 14h2a6 6 0 1 0 0-12h-4a6 6 0 0 0-6 6c0 3.61 2.462 5.966 8 8.48V17z"/></symbol><symbol viewBox="0 0 24 24" id="chat-1-fill"><path fill="none" d="M0 0h24v24H0z"/><path d="M10 3h4a8 8 0 1 1 0 16v3.5c-5-2-12-5-12-11.5a8 8 0 0 1 8-8z"/></symbol><symbol viewBox="0 0 24 24" id="message-3-line"><path fill="none" d="M0 0h24v24H0z"/><path d="M2 8.994A5.99 5.99 0 0 1 8 3h8c3.313 0 6 2.695 6 5.994V21H8c-3.313 0-6-2.695-6-5.994V8.994zM20 19V8.994A4.004 4.004 0 0 0 16 5H8a3.99 3.99 0 0 0-4 3.994v6.012A4.004 4.004 0 0 0 8 19h12zm-6-8h2v2h-2v-2zm-6 0h2v2H8v-2z"/></symbol><symbol viewBox="0 0 24 24" id="message-3-fill"><path fill="none" d="M0 0h24v24H0z"/><path d="M2 8.994A5.99 5.99 0 0 1 8 3h8c3.313 0 6 2.695 6 5.994V21H8c-3.313 0-6-2.695-6-5.994V8.994zM14 11v2h2v-2h-2zm-6 0v2h2v-2H8z"/></symbol><symbol viewBox="0 0 24 24" id="node-tree"><path fill="none" d="M0 0H24V24H0z"/><path d="M10 2c.552 0 1 .448 1 1v4c0 .552-.448 1-1 1H8v2h5V9c0-.552.448-1 1-1h6c.552 0 1 .448 1 1v4c0 .552-.448 1-1 1h-6c-.552 0-1-.448-1-1v-1H8v6h5v-1c0-.552.448-1 1-1h6c.552 0 1 .448 1 1v4c0 .552-.448 1-1 1h-6c-.552 0-1-.448-1-1v-1H7c-.552 0-1-.448-1-1V8H4c-.552 0-1-.448-1-1V3c0-.552.448-1 1-1h6zm9 16h-4v2h4v-2zm0-8h-4v2h4v-2zM9 4H5v2h4V4z"/></symbol><symbol viewBox="0 0 24 24" id="profile-line"><path fill="none" d="M0 0h24v24H0z"/><path d="M2 3.993A1 1 0 0 1 2.992 3h18.016c.548 0 .992.445.992.993v16.014a1 1 0 0 1-.992.993H2.992A.993.993 0 0 1 2 20.007V3.993zM4 5v14h16V5H4zm2 2h6v6H6V7zm2 2v2h2V9H8zm-2 6h12v2H6v-2zm8-8h4v2h-4V7zm0 4h4v2h-4v-2z"/></symbol><symbol viewBox="0 0 24 24" id="profile-fill"><path fill="none" d="M0 0h24v24H0z"/><path d="M2 3.993A1 1 0 0 1 2.992 3h18.016c.548 0 .992.445.992.993v16.014a1 1 0 0 1-.992.993H2.992A.993.993 0 0 1 2 20.007V3.993zM6 15v2h12v-2H6zm0-8v6h6V7H6zm8 0v2h4V7h-4zm0 4v2h4v-2h-4zM8 9h2v2H8V9z"/></symbol><symbol viewBox="0 0 24 24" id="login-circle-fill"><path fill="none" d="M0 0h24v24H0z"/><path d="M10 11H2.05C2.55 5.947 6.814 2 12 2c5.523 0 10 4.477 10 10s-4.477 10-10 10c-5.185 0-9.449-3.947-9.95-9H10v3l5-4-5-4v3z"/></symbol><symbol viewBox="0 0 24 24" id="logout-circle-line"><path fill="none" d="M0 0h24v24H0z"/><path d="M5 11h8v2H5v3l-5-4 5-4v3zm-1 7h2.708a8 8 0 1 0 0-12H4A9.985 9.985 0 0 1 12 2c5.523 0 10 4.477 10 10s-4.477 10-10 10a9.985 9.985 0 0 1-8-4z"/></symbol><symbol viewBox="0 0 24 24" id="logout-circle-fill"><path fill="none" d="M0 0h24v24H0z"/><path d="M12 22C6.477 22 2 17.523 2 12S6.477 2 12 2s10 4.477 10 10-4.477 10-10 10zM7 11V8l-5 4 5 4v-3h8v-2H7z"/></symbol><symbol viewBox="0 0 24 24" id="dashboard-line"><path fill="none" d="M0 0h24v24H0z"/><path d="M13 21V11h8v10h-8zM3 13V3h8v10H3zm6-2V5H5v6h4zM3 21v-6h8v6H3zm2-2h4v-2H5v2zm10 0h4v-6h-4v6zM13 3h8v6h-8V3zm2 2v2h4V5h-4z"/></symbol><symbol viewBox="0 0 24 24" id="dashboard-fill"><path fill="none" d="M0 0h24v24H0z"/><path d="M3 13h8V3H3v10zm0 8h8v-6H3v6zm10 0h8V11h-8v10zm0-18v6h8V3h-8z"/></symbol><symbol viewBox="0 0 24 24" id="gallery-line"><path fill="none" d="M0 0h24v24H0z"/><path d="M20 13c-1.678 0-3.249.46-4.593 1.259A14.984 14.984 0 0 1 18.147 19H20v-6zm-3.996 6C14.044 14.302 9.408 11 4 11v8h12.004zM4 9c3.83 0 7.323 1.435 9.974 3.796A10.949 10.949 0 0 1 20 11V3h1.008c.548 0 .992.445.992.993v16.014a1 1 0 0 1-.992.993H2.992A.993.993 0 0 1 2 20.007V3.993A1 1 0 0 1 2.992 3H6V1h2v4H4v4zm14-8v4h-8V3h6V1h2zm-1.5 9a1.5 1.5 0 1 1 0-3 1.5 1.5 0 0 1 0 3z"/></symbol><symbol viewBox="0 0 24 24" id="gallery-fill"><path fill="none" d="M0 0h24v24H0z"/><path d="M17.409 19c-.776-2.399-2.277-3.885-4.266-5.602A10.954 10.954 0 0 1 20 11V3h1.008c.548 0 .992.445.992.993v16.014a1 1 0 0 1-.992.993H2.992A.993.993 0 0 1 2 20.007V3.993A1 1 0 0 1 2.992 3H6V1h2v4H4v7c5.22 0 9.662 2.462 11.313 7h2.096zM18 1v4h-8V3h6V1h2zm-1.5 9a1.5 1.5 0 1 1 0-3 1.5 1.5 0 0 1 0 3z"/></symbol><symbol viewBox="0 0 24 24" id="facebook-circle-line"><path fill="none" d="M0 0h24v24H0z"/><path d="M13 19.938A8.001 8.001 0 0 0 12 4a8 8 0 0 0-1 15.938V14H9v-2h2v-1.654c0-1.337.14-1.822.4-2.311A2.726 2.726 0 0 1 12.536 6.9c.382-.205.857-.328 1.687-.381.329-.021.755.005 1.278.08v1.9H15c-.917 0-1.296.043-1.522.164a.727.727 0 0 0-.314.314c-.12.226-.164.45-.164 1.368V12h2.5l-.5 2h-2v5.938zM12 22C6.477 22 2 17.523 2 12S6.477 2 12 2s10 4.477 10 10-4.477 10-10 10z"/></symbol><symbol viewBox="0 0 24 24" id="facebook-circle-fill"><path fill="none" d="M0 0h24v24H0z"/><path d="M12 2C6.477 2 2 6.477 2 12c0 4.991 3.657 9.128 8.438 9.879V14.89h-2.54V12h2.54V9.797c0-2.506 1.492-3.89 3.777-3.89 1.094 0 2.238.195 2.238.195v2.46h-1.26c-1.243 0-1.63.771-1.63 1.562V12h2.773l-.443 2.89h-2.33v6.989C18.343 21.129 22 16.99 22 12c0-5.523-4.477-10-10-10z"/></symbol><symbol viewBox="0 0 24 24" id="twitter-line"><path fill="none" d="M0 0h24v24H0z"/><path d="M15.3 5.55a2.9 2.9 0 0 0-2.9 2.847l-.028 1.575a.6.6 0 0 1-.68.583l-1.561-.212c-2.054-.28-4.022-1.226-5.91-2.799-.598 3.31.57 5.603 3.383 7.372l1.747 1.098a.6.6 0 0 1 .034.993L7.793 18.17c.947.059 1.846.017 2.592-.131 4.718-.942 7.855-4.492 7.855-10.348 0-.478-1.012-2.141-2.94-2.141zm-4.9 2.81a4.9 4.9 0 0 1 8.385-3.355c.711-.005 1.316.175 2.669-.645-.335 1.64-.5 2.352-1.214 3.331 0 7.642-4.697 11.358-9.463 12.309-3.268.652-8.02-.419-9.382-1.841.694-.054 3.514-.357 5.144-1.55C5.16 15.7-.329 12.47 3.278 3.786c1.693 1.977 3.41 3.323 5.15 4.037 1.158.475 1.442.465 1.973.538z"/></symbol><symbol viewBox="0 0 24 24" id="linkedin-line"><path fill="none" d="M0 0h24v24H0z"/><path d="M12 9.55C12.917 8.613 14.111 8 15.5 8a5.5 5.5 0 0 1 5.5 5.5V21h-2v-7.5a3.5 3.5 0 0 0-7 0V21h-2V8.5h2v1.05zM5 6.5a1.5 1.5 0 1 1 0-3 1.5 1.5 0 0 1 0 3zm-1 2h2V21H4V8.5z"/></symbol><symbol viewBox="0 0 24 24" id="linkedin-fill"><path fill="none" d="M0 0h24v24H0z"/><path d="M6.94 5a2 2 0 1 1-4-.002 2 2 0 0 1 4 .002zM7 8.48H3V21h4V8.48zm6.32 0H9.34V21h3.94v-6.57c0-3.66 4.77-4 4.77 0V21H22v-7.93c0-6.17-7.06-5.94-8.72-2.91l.04-1.68z"/></symbol><symbol viewBox="0 0 24 24" id="search-line"><path fill="none" d="M0 0h24v24H0z"/><path d="M18.031 16.617l4.283 4.282-1.415 1.415-4.282-4.283A8.96 8.96 0 0 1 11 20c-4.968 0-9-4.032-9-9s4.032-9 9-9 9 4.032 9 9a8.96 8.96 0 0 1-1.969 5.617zm-2.006-.742A6.977 6.977 0 0 0 18 11c0-3.868-3.133-7-7-7-3.868 0-7 3.132-7 7 0 3.867 3.132 7 7 7a6.977 6.977 0 0 0 4.875-1.975l.15-.15z"/></symbol><symbol viewBox="0 0 24 24" id="search-fill"><path fill="none" d="M0 0h24v24H0z"/><path d="M18.031 16.617l4.283 4.282-1.415 1.415-4.282-4.283A8.96 8.96 0 0 1 11 20c-4.968 0-9-4.032-9-9s4.032-9 9-9 9 4.032 9 9a8.96 8.96 0 0 1-1.969 5.617z"/></symbol><symbol viewBox="0 0 24 24" id="mail-line"><path fill="none" d="M0 0h24v24H0z"/><path d="M3 3h18a1 1 0 0 1 1 1v16a1 1 0 0 1-1 1H3a1 1 0 0 1-1-1V4a1 1 0 0 1 1-1zm17 4.238l-7.928 7.1L4 7.216V19h16V7.238zM4.511 5l7.55 6.662L19.502 5H4.511z"/></symbol><symbol viewBox="0 0 24 24" id="mail-fill"><path fill="none" d="M0 0h24v24H0z"/><path d="M3 3h18a1 1 0 0 1 1 1v16a1 1 0 0 1-1 1H3a1 1 0 0 1-1-1V4a1 1 0 0 1 1-1zm9.06 8.683L5.648 6.238 4.353 7.762l7.72 6.555 7.581-6.56-1.308-1.513-6.285 5.439z"/></symbol><symbol viewBox="0 0 24 24" id="notification-line"><path fill="none" d="M0 0h24v24H0z"/><path d="M5 18h14v-6.969C19 7.148 15.866 4 12 4s-7 3.148-7 7.031V18zm7-16c4.97 0 9 4.043 9 9.031V20H3v-8.969C3 6.043 7.03 2 12 2zM9.5 21h5a2.5 2.5 0 1 1-5 0z"/></symbol><symbol viewBox="0 0 24 24" id="notification-fill"><path fill="none" d="M0 0h24v24H0z"/><path d="M12 2c4.97 0 9 4.043 9 9.031V20H3v-8.969C3 6.043 7.03 2 12 2zM9.5 21h5a2.5 2.5 0 1 1-5 0z"/></symbol><symbol viewBox="0 0 24 24" id="user-6-line"><path fill="none" d="M0 0h24v24H0z"/><path d="M12 17c3.662 0 6.865 1.575 8.607 3.925l-1.842.871C17.347 20.116 14.847 19 12 19c-2.847 0-5.347 1.116-6.765 2.796l-1.841-.872C5.136 18.574 8.338 17 12 17zm0-15a5 5 0 0 1 5 5v3a5 5 0 0 1-4.783 4.995L12 15a5 5 0 0 1-5-5V7a5 5 0 0 1 4.783-4.995L12 2zm0 2a3 3 0 0 0-2.995 2.824L9 7v3a3 3 0 0 0 5.995.176L15 10V7a3 3 0 0 0-3-3z"/></symbol><symbol viewBox="0 0 24 24" id="user-6-fill"><path fill="none" d="M0 0h24v24H0z"/><path d="M12 17c3.662 0 6.865 1.575 8.607 3.925l-1.842.871C17.347 20.116 14.847 19 12 19c-2.847 0-5.347 1.116-6.765 2.796l-1.841-.872C5.136 18.574 8.338 17 12 17zm0-15a5 5 0 0 1 5 5v3a5 5 0 0 1-10 0V7a5 5 0 0 1 5-5z"/></symbol><symbol viewBox="0 0 24 24" id="map-pin-line"><path fill="none" d="M0 0h24v24H0z"/><path d="M12 20.9l4.95-4.95a7 7 0 1 0-9.9 0L12 20.9zm0 2.828l-6.364-6.364a9 9 0 1 1 12.728 0L12 23.728zM12 13a2 2 0 1 0 0-4 2 2 0 0 0 0 4zm0 2a4 4 0 1 1 0-8 4 4 0 0 1 0 8z"/></symbol><symbol viewBox="0 0 24 24" id="map-pin-fill"><path fill="none" d="M0 0h24v24H0z"/><path d="M18.364 17.364L12 23.728l-6.364-6.364a9 9 0 1 1 12.728 0zM12 15a4 4 0 1 0 0-8 4 4 0 0 0 0 8zm0-2a2 2 0 1 1 0-4 2 2 0 0 1 0 4z"/></symbol><symbol viewBox="0 0 24 24" id="hand-heart-line"><path fill="none" d="M0 0h24v24H0z"/><path d="M5 9a1 1 0 0 1 1 1 6.97 6.97 0 0 1 4.33 1.5h2.17c1.332 0 2.53.579 3.353 1.499L19 13a5 5 0 0 1 4.516 2.851C21.151 18.972 17.322 21 13 21c-2.79 0-5.15-.603-7.06-1.658A.998.998 0 0 1 5 20H2a1 1 0 0 1-1-1v-9a1 1 0 0 1 1-1h3zm1.001 3L6 17.021l.045.033C7.84 18.314 10.178 19 13 19c3.004 0 5.799-1.156 7.835-3.13l.133-.133-.12-.1a2.994 2.994 0 0 0-1.643-.63L19 15l-2.112-.001c.073.322.112.657.112 1.001v1H8v-2l6.79-.001-.034-.078a2.501 2.501 0 0 0-2.092-1.416L12.5 13.5H9.57A4.985 4.985 0 0 0 6.002 12zM4 11H3v7h1v-7zm9.646-7.425L14 3.93l.354-.354a2.5 2.5 0 1 1 3.535 3.536L14 11l-3.89-3.89a2.5 2.5 0 1 1 3.536-3.535zm-2.12 1.415a.5.5 0 0 0-.06.637l.058.069L14 8.17l2.476-2.474a.5.5 0 0 0 .058-.638l-.058-.07a.5.5 0 0 0-.638-.057l-.07.058-1.769 1.768-1.767-1.77-.068-.056a.5.5 0 0 0-.638.058z"/></symbol><symbol viewBox="0 0 24 24" id="hand-heart-fill"><path fill="none" d="M0 0h24v24H0z"/><path d="M9.33 11.5h2.17A4.5 4.5 0 0 1 16 16H8.999L9 17h8v-1a5.578 5.578 0 0 0-.886-3H19a5 5 0 0 1 4.516 2.851C21.151 18.972 17.322 21 13 21c-2.761 0-5.1-.59-7-1.625L6 10.071A6.967 6.967 0 0 1 9.33 11.5zM4 9a1 1 0 0 1 .993.883L5 10V19a1 1 0 0 1-1 1H2a1 1 0 0 1-1-1v-9a1 1 0 0 1 1-1h2zm9.646-5.425L14 3.93l.354-.354a2.5 2.5 0 1 1 3.535 3.536L14 11l-3.89-3.89a2.5 2.5 0 1 1 3.536-3.535z"/></symbol><symbol viewBox="0 0 24 24" id="question-line"><path fill="none" d="M0 0h24v24H0z"/><path d="M12 22C6.477 22 2 17.523 2 12S6.477 2 12 2s10 4.477 10 10-4.477 10-10 10zm0-2a8 8 0 1 0 0-16 8 8 0 0 0 0 16zm-1-5h2v2h-2v-2zm2-1.645V14h-2v-1.5a1 1 0 0 1 1-1 1.5 1.5 0 1 0-1.471-1.794l-1.962-.393A3.501 3.501 0 1 1 13 13.355z"/></symbol><symbol viewBox="0 0 24 24" id="question-fill"><path fill="none" d="M0 0h24v24H0z"/><path d="M12 22C6.477 22 2 17.523 2 12S6.477 2 12 2s10 4.477 10 10-4.477 10-10 10zm-1-7v2h2v-2h-2zm2-1.645A3.502 3.502 0 0 0 12 6.5a3.501 3.501 0 0 0-3.433 2.813l1.962.393A1.5 1.5 0 1 1 12 11.5a1 1 0 0 0-1 1V14h2v-.645z"/></symbol><symbol viewBox="0 0 24 24" id="delete-bin-2-line"><path fill="none" d="M0 0h24v24H0z"/><path d="M17 6h5v2h-2v13a1 1 0 0 1-1 1H5a1 1 0 0 1-1-1V8H2V6h5V3a1 1 0 0 1 1-1h8a1 1 0 0 1 1 1v3zm1 2H6v12h12V8zm-4.586 6l1.768 1.768-1.414 1.414L12 15.414l-1.768 1.768-1.414-1.414L10.586 14l-1.768-1.768 1.414-1.414L12 12.586l1.768-1.768 1.414 1.414L13.414 14zM9 4v2h6V4H9z"/></symbol><symbol viewBox="0 0 24 24" id="delete-bin-2-fill"><path fill="none" d="M0 0h24v24H0z"/><path d="M7 6V3a1 1 0 0 1 1-1h8a1 1 0 0 1 1 1v3h5v2h-2v13a1 1 0 0 1-1 1H5a1 1 0 0 1-1-1V8H2V6h5zm6.414 8l1.768-1.768-1.414-1.414L12 12.586l-1.768-1.768-1.414 1.414L10.586 14l-1.768 1.768 1.414 1.414L12 15.414l1.768 1.768 1.414-1.414L13.414 14zM9 4v2h6V4H9z"/></symbol><symbol viewBox="0 0 24 24" id="edit-line"><path fill="none" d="M0 0h24v24H0z"/><path d="M6.414 16L16.556 5.858l-1.414-1.414L5 14.586V16h1.414zm.829 2H3v-4.243L14.435 2.322a1 1 0 0 1 1.414 0l2.829 2.829a1 1 0 0 1 0 1.414L7.243 18zM3 20h18v2H3v-2z"/></symbol><symbol viewBox="0 0 24 24" id="edit-fill"><path fill="none" d="M0 0h24v24H0z"/><path d="M7.243 18H3v-4.243L14.435 2.322a1 1 0 0 1 1.414 0l2.829 2.829a1 1 0 0 1 0 1.414L7.243 18zM3 20h18v2H3v-2z"/></symbol><symbol viewBox="0 0 24 24" id="user-add-line"><path fill="none" d="M0 0h24v24H0z"/><path d="M14 14.252v2.09A6 6 0 0 0 6 22l-2-.001a8 8 0 0 1 10-7.748zM12 13c-3.315 0-6-2.685-6-6s2.685-6 6-6 6 2.685 6 6-2.685 6-6 6zm0-2c2.21 0 4-1.79 4-4s-1.79-4-4-4-4 1.79-4 4 1.79 4 4 4zm6 6v-3h2v3h3v2h-3v3h-2v-3h-3v-2h3z"/></symbol><symbol viewBox="0 0 24 24" id="user-add-fill"><path fill="none" d="M0 0h24v24H0z"/><path d="M14 14.252V22H4a8 8 0 0 1 10-7.748zM12 13c-3.315 0-6-2.685-6-6s2.685-6 6-6 6 2.685 6 6-2.685 6-6 6zm6 4v-3h2v3h3v2h-3v3h-2v-3h-3v-2h3z"/></symbol><symbol viewBox="0 0 24 24" id="gift-2-line"><path fill="none" d="M0 0h24v24H0z"/><path d="M14.5 2a3.5 3.5 0 0 1 3.163 5.001L21 7a1 1 0 0 1 1 1v4a1 1 0 0 1-1 1h-1v8a1 1 0 0 1-1 1H5a1 1 0 0 1-1-1v-8H3a1 1 0 0 1-1-1V8a1 1 0 0 1 1-1l3.337.001a3.5 3.5 0 0 1 5.664-3.95A3.48 3.48 0 0 1 14.5 2zM18 13H6v7h12v-7zm2-4H4v2h16V9zM9.5 4a1.5 1.5 0 0 0-.144 2.993L9.5 7H11V5.5a1.5 1.5 0 0 0-1.356-1.493L9.5 4zm5 0l-.144.007a1.5 1.5 0 0 0-1.35 1.349L13 5.5V7h1.5l.144-.007a1.5 1.5 0 0 0 0-2.986L14.5 4z"/></symbol><symbol viewBox="0 0 24 24" id="gift-2-fill"><path fill="none" d="M0 0h24v24H0z"/><path d="M20 13v7a1 1 0 0 1-1 1H5a1 1 0 0 1-1-1v-7h16zM14.5 2a3.5 3.5 0 0 1 3.163 5.001L21 7a1 1 0 0 1 1 1v3a1 1 0 0 1-1 1H3a1 1 0 0 1-1-1V8a1 1 0 0 1 1-1l3.337.001a3.5 3.5 0 0 1 5.664-3.95A3.48 3.48 0 0 1 14.5 2zm-5 2a1.5 1.5 0 0 0-.144 2.993L9.5 7H11V5.5a1.5 1.5 0 0 0-1.356-1.493L9.5 4zm5 0l-.144.007a1.5 1.5 0 0 0-1.35 1.349L13 5.5V7h1.5l.144-.007a1.5 1.5 0 0 0 0-2.986L14.5 4z"/></symbol><symbol viewBox="0 0 24 24" id="user-heart-line"><path fill="none" d="M0 0h24v24H0z"/><path d="M17.841 15.659l.176.177.178-.177a2.25 2.25 0 0 1 3.182 3.182l-3.36 3.359-3.358-3.359a2.25 2.25 0 0 1 3.182-3.182zM12 14v2a6 6 0 0 0-6 6H4a8 8 0 0 1 7.75-7.996L12 14zm0-13c3.315 0 6 2.685 6 6a5.998 5.998 0 0 1-5.775 5.996L12 13c-3.315 0-6-2.685-6-6a5.998 5.998 0 0 1 5.775-5.996L12 1zm0 2C9.79 3 8 4.79 8 7s1.79 4 4 4 4-1.79 4-4-1.79-4-4-4z"/></symbol><symbol viewBox="0 0 24 24" id="user-heart-fill"><path fill="none" d="M0 0h24v24H0z"/><path d="M17.841 15.659l.176.177.178-.177a2.25 2.25 0 0 1 3.182 3.182l-3.36 3.359-3.358-3.359a2.25 2.25 0 0 1 3.182-3.182zM12 14v8H4a8 8 0 0 1 7.75-7.996L12 14zm0-13c3.315 0 6 2.685 6 6s-2.685 6-6 6-6-2.685-6-6 2.685-6 6-6z"/></symbol><symbol viewBox="0 0 24 24" id="empathize-line"><path fill="none" d="M0 0H24V24H0z"/><path d="M18.364 10.98c1.562 1.561 1.562 4.094 0 5.656l-5.657 5.657c-.39.39-1.024.39-1.414 0l-5.657-5.657c-1.562-1.562-1.562-4.095 0-5.657 1.562-1.562 4.095-1.562 5.657 0l.706.707.708-.707c1.562-1.562 4.095-1.562 5.657 0zM7.05 12.392c-.78.781-.78 2.048 0 2.829l4.95 4.95 4.95-4.95c.78-.781.78-2.048 0-2.829-.781-.78-2.048-.78-2.83.002l-2.122 2.118-2.12-2.12c-.78-.78-2.047-.78-2.828 0zM12 1c2.21 0 4 1.79 4 4s-1.79 4-4 4-4-1.79-4-4 1.79-4 4-4zm0 2c-1.105 0-2 .895-2 2s.895 2 2 2 2-.895 2-2-.895-2-2-2z"/></symbol><symbol viewBox="0 0 24 24" id="empathize-fill"><path fill="none" d="M0 0H24V24H0z"/><path d="M18.364 10.98c1.562 1.561 1.562 4.094 0 5.656l-5.657 5.657c-.39.39-1.024.39-1.414 0l-5.657-5.657c-1.562-1.562-1.562-4.095 0-5.657 1.562-1.562 4.095-1.562 5.657 0l.706.707.708-.707c1.562-1.562 4.095-1.562 5.657 0zM12 1c2.21 0 4 1.79 4 4s-1.79 4-4 4-4-1.79-4-4 1.79-4 4-4z"/></symbol><symbol viewBox="0 0 24 24" id="hearts-line"><path fill="none" d="M0 0H24V24H0z"/><path d="M19.243 4.757c1.462 1.466 2.012 3.493 1.65 5.38.568.16 1.106.463 1.554.908 1.404 1.394 1.404 3.654 0 5.047L17 21.5l-3.022-3L11 21.485 2.52 12.993C.417 10.637.496 7.019 2.757 4.757c2.265-2.264 5.888-2.34 8.244-.228 2.349-2.109 5.979-2.039 8.242.228zm-6.281 7.708c-.616.611-.616 1.597 0 2.208L17 18.682l4.038-4.009c.616-.611.616-1.597 0-2.208-.624-.62-1.642-.62-2.268.002l-1.772 1.754-1.407-1.396-.363-.36c-.624-.62-1.642-.62-2.266 0zm-8.79-6.293c-1.49 1.49-1.565 3.875-.192 5.451L11 18.654l1.559-1.562-1.006-1c-1.404-1.393-1.404-3.653 0-5.047 1.404-1.393 3.68-1.393 5.084 0l.363.36.363-.36c.425-.421.93-.715 1.465-.882.416-1.367.078-2.912-1.001-3.993-1.5-1.502-3.92-1.563-5.49-.153l-1.335 1.198-1.336-1.197c-1.575-1.412-3.99-1.35-5.494.154z"/></symbol><symbol viewBox="0 0 24 24" id="hearts-fill"><path fill="none" d="M0 0H24V24H0z"/><path d="M17.363 11.045c1.404-1.393 3.68-1.393 5.084 0 1.404 1.394 1.404 3.654 0 5.047L17 21.5l-5.447-5.408c-1.404-1.393-1.404-3.653 0-5.047 1.404-1.393 3.68-1.393 5.084 0l.363.36.363-.36zm1.88-6.288c.94.943 1.503 2.118 1.689 3.338-1.333-.248-2.739-.01-3.932.713-2.15-1.303-4.994-1.03-6.856.818-2.131 2.115-2.19 5.515-.178 7.701l.178.185 2.421 2.404L11 21.485 2.52 12.993C.417 10.637.496 7.019 2.757 4.757c2.265-2.264 5.888-2.34 8.244-.228 2.349-2.109 5.979-2.039 8.242.228z"/></symbol><symbol viewBox="0 0 24 24" id="pulse-line"><path fill="none" d="M0 0H24V24H0z"/><path d="M9 7.539L15 21.539 18.659 13 23 13 23 11 17.341 11 15 16.461 9 2.461 5.341 11 1 11 1 13 6.659 13z"/></symbol><symbol viewBox="0 0 24 24" id="pulse-fill"><path fill="none" d="M0 0H24V24H0z"/><path d="M9 7.539L15 21.539 18.659 13 23 13 23 11 17.341 11 15 16.461 9 2.461 5.341 11 1 11 1 13 6.659 13z"/></symbol><symbol viewBox="0 0 24 24" id="heart-line"><path fill="none" d="M0 0H24V24H0z"/><path d="M12.001 4.529c2.349-2.109 5.979-2.039 8.242.228 2.262 2.268 2.34 5.88.236 8.236l-8.48 8.492-8.478-8.492c-2.104-2.356-2.025-5.974.236-8.236 2.265-2.264 5.888-2.34 8.244-.228zm6.826 1.641c-1.5-1.502-3.92-1.563-5.49-.153l-1.335 1.198-1.336-1.197c-1.575-1.412-3.99-1.35-5.494.154-1.49 1.49-1.565 3.875-.192 5.451L12 18.654l7.02-7.03c1.374-1.577 1.299-3.959-.193-5.454z"/></symbol><symbol viewBox="0 0 24 24" id="heart-fill"><path fill="none" d="M0 0H24V24H0z"/><path d="M12.001 4.529c2.349-2.109 5.979-2.039 8.242.228 2.262 2.268 2.34 5.88.236 8.236l-8.48 8.492-8.478-8.492c-2.104-2.356-2.025-5.974.236-8.236 2.265-2.264 5.888-2.34 8.244-.228z"/></symbol><symbol viewBox="0 0 24 24" id="service-fill"><path fill="none" d="M0 0h24v24H0z"/><path d="M14.121 10.48a1 1 0 0 0-1.414 0l-.707.706a2 2 0 1 1-2.828-2.828l5.63-5.632a6.5 6.5 0 0 1 6.377 10.568l-2.108 2.135-4.95-4.95zM3.161 4.468a6.503 6.503 0 0 1 8.009-.938L7.757 6.944a4 4 0 0 0 5.513 5.794l.144-.137 4.243 4.242-4.243 4.243a2 2 0 0 1-2.828 0L3.16 13.66a6.5 6.5 0 0 1 0-9.192z"/></symbol><symbol viewBox="0 0 24 24" id="service-line"><path fill="none" d="M0 0h24v24H0z"/><path d="M3.161 4.469a6.5 6.5 0 0 1 8.84-.328 6.5 6.5 0 0 1 9.178 9.154l-7.765 7.79a2 2 0 0 1-2.719.102l-.11-.101-7.764-7.791a6.5 6.5 0 0 1 .34-8.826zm1.414 1.414a4.5 4.5 0 0 0-.146 6.21l.146.154L12 19.672l5.303-5.304-3.535-3.535-1.06 1.06a3 3 0 1 1-4.244-4.242l2.102-2.103a4.501 4.501 0 0 0-5.837.189l-.154.146zm8.486 2.828a1 1 0 0 1 1.414 0l4.242 4.242.708-.706a4.5 4.5 0 0 0-6.211-6.51l-.153.146-3.182 3.182a1 1 0 0 0-.078 1.327l.078.087a1 1 0 0 0 1.327.078l.087-.078 1.768-1.768z"/></symbol><symbol viewBox="0 0 24 24" id="home-heart-line"><path fill="none" d="M0 0h24v24H0z"/><path d="M20 20a1 1 0 0 1-1 1H5a1 1 0 0 1-1-1v-9H1l10.327-9.388a1 1 0 0 1 1.346 0L23 11h-3v9zm-2-1V9.157l-6-5.454-6 5.454V19h12zm-6-2l-3.359-3.359a2.25 2.25 0 1 1 3.182-3.182l.177.177.177-.177a2.25 2.25 0 1 1 3.182 3.182L12 17z"/></symbol><symbol viewBox="0 0 24 24" id="home-heart-fill"><path fill="none" d="M0 0h24v24H0z"/><path d="M20 20a1 1 0 0 1-1 1H5a1 1 0 0 1-1-1v-9H1l10.327-9.388a1 1 0 0 1 1.346 0L23 11h-3v9zm-8-3l3.359-3.359a2.25 2.25 0 1 0-3.182-3.182l-.177.177-.177-.177a2.25 2.25 0 1 0-3.182 3.182L12 17z"/></symbol><symbol viewBox="0 0 24 24" id="arrow-up-s-line"><path fill="none" d="M0 0h24v24H0z"/><path d="M12 10.828l-4.95 4.95-1.414-1.414L12 8l6.364 6.364-1.414 1.414z"/></symbol><symbol viewBox="0 0 24 24" id="arrow-down-s-line"><path fill="none" d="M0 0h24v24H0z"/><path d="M12 13.172l4.95-4.95 1.414 1.414L12 16 5.636 9.636 7.05 8.222z"/></symbol><symbol viewBox="0 0 24 24" id="arrow-right-s-line"><path fill="none" d="M0 0h24v24H0z"/><path d="M13.172 12l-4.95-4.95 1.414-1.414L16 12l-6.364 6.364-1.414-1.414z"/></symbol><symbol viewBox="0 0 24 24" id="arrow-left-s-line"><path fill="none" d="M0 0h24v24H0z"/><path d="M10.828 12l4.95 4.95-1.414 1.414L8 12l6.364-6.364 1.414 1.414z"/></symbol><symbol viewBox="0 0 24 24" id="group-2-line"><path fill="none" d="M0 0h24v24H0z"/><path d="M9.55 11.5a2.25 2.25 0 1 1 0-4.5 2.25 2.25 0 0 1 0 4.5zm.45 8.248V16.4c0-.488.144-.937.404-1.338a6.473 6.473 0 0 0-5.033 1.417A8.012 8.012 0 0 0 10 19.749zM4.453 14.66A8.462 8.462 0 0 1 9.5 13c1.043 0 2.043.188 2.967.532.878-.343 1.925-.532 3.033-.532 1.66 0 3.185.424 4.206 1.156a8 8 0 1 0-15.253.504zm14.426 1.426C18.486 15.553 17.171 15 15.5 15c-2.006 0-3.5.797-3.5 1.4V20a7.996 7.996 0 0 0 6.88-3.914zM12 22C6.477 22 2 17.523 2 12S6.477 2 12 2s10 4.477 10 10-4.477 10-10 10zm3.5-9.5a2 2 0 1 1 0-4 2 2 0 0 1 0 4z"/></symbol><symbol viewBox="0 0 24 24" id="group-2-fill"><path fill="none" d="M0 0h24v24H0z"/><path d="M10 19.748V16.4c0-1.283.995-2.292 2.467-2.868A8.482 8.482 0 0 0 9.5 13c-1.89 0-3.636.617-5.047 1.66A8.017 8.017 0 0 0 10 19.748zm8.88-3.662C18.485 15.553 17.17 15 15.5 15c-2.006 0-3.5.797-3.5 1.4V20a7.996 7.996 0 0 0 6.88-3.914zM9.55 11.5a2.25 2.25 0 1 0 0-4.5 2.25 2.25 0 0 0 0 4.5zm5.95 1a2 2 0 1 0 0-4 2 2 0 0 0 0 4zM12 22C6.477 22 2 17.523 2 12S6.477 2 12 2s10 4.477 10 10-4.477 10-10 10z"/></symbol><symbol viewBox="0 0 24 24" id="team-line"><path fill="none" d="M0 0h24v24H0z"/><path d="M12 11a5 5 0 0 1 5 5v6h-2v-6a3 3 0 0 0-2.824-2.995L12 13a3 3 0 0 0-2.995 2.824L9 16v6H7v-6a5 5 0 0 1 5-5zm-6.5 3c.279 0 .55.033.81.094a5.947 5.947 0 0 0-.301 1.575L6 16v.086a1.492 1.492 0 0 0-.356-.08L5.5 16a1.5 1.5 0 0 0-1.493 1.356L4 17.5V22H2v-4.5A3.5 3.5 0 0 1 5.5 14zm13 0a3.5 3.5 0 0 1 3.5 3.5V22h-2v-4.5a1.5 1.5 0 0 0-1.356-1.493L18.5 16c-.175 0-.343.03-.5.085V16c0-.666-.108-1.306-.309-1.904.259-.063.53-.096.809-.096zm-13-6a2.5 2.5 0 1 1 0 5 2.5 2.5 0 0 1 0-5zm13 0a2.5 2.5 0 1 1 0 5 2.5 2.5 0 0 1 0-5zm-13 2a.5.5 0 1 0 0 1 .5.5 0 0 0 0-1zm13 0a.5.5 0 1 0 0 1 .5.5 0 0 0 0-1zM12 2a4 4 0 1 1 0 8 4 4 0 0 1 0-8zm0 2a2 2 0 1 0 0 4 2 2 0 0 0 0-4z"/></symbol><symbol viewBox="0 0 24 24" id="team-fill"><path fill="none" d="M0 0h24v24H0z"/><path d="M12 11a5 5 0 0 1 5 5v6H7v-6a5 5 0 0 1 5-5zm-6.712 3.006a6.983 6.983 0 0 0-.28 1.65L5 16v6H2v-4.5a3.5 3.5 0 0 1 3.119-3.48l.17-.014zm13.424 0A3.501 3.501 0 0 1 22 17.5V22h-3v-6c0-.693-.1-1.362-.288-1.994zM5.5 8a2.5 2.5 0 1 1 0 5 2.5 2.5 0 0 1 0-5zm13 0a2.5 2.5 0 1 1 0 5 2.5 2.5 0 0 1 0-5zM12 2a4 4 0 1 1 0 8 4 4 0 0 1 0-8z"/></symbol><symbol viewBox="0 0 24 24" id="building-line"><path fill="none" d="M0 0h24v24H0z"/><path d="M21 19h2v2H1v-2h2V4a1 1 0 0 1 1-1h10a1 1 0 0 1 1 1v15h4v-8h-2V9h3a1 1 0 0 1 1 1v9zM5 5v14h8V5H5zm2 6h4v2H7v-2zm0-4h4v2H7V7z"/></symbol><symbol viewBox="0 0 24 24" id="building-fill"><path fill="none" d="M0 0h24v24H0z"/><path d="M21 19h2v2H1v-2h2V4a1 1 0 0 1 1-1h10a1 1 0 0 1 1 1v15h2V9h3a1 1 0 0 1 1 1v9zM7 11v2h4v-2H7zm0-4v2h4V7H7z"/></symbol><symbol viewBox="0 0 24 24" id="bank-card-line"><path fill="none" d="M0 0h24v24H0z"/><path d="M3 3h18a1 1 0 0 1 1 1v16a1 1 0 0 1-1 1H3a1 1 0 0 1-1-1V4a1 1 0 0 1 1-1zm17 8H4v8h16v-8zm0-2V5H4v4h16zm-6 6h4v2h-4v-2z"/></symbol><symbol viewBox="0 0 24 24" id="bank-card-fill"><path fill="none" d="M0 0h24v24H0z"/><path d="M22 10v10a1 1 0 0 1-1 1H3a1 1 0 0 1-1-1V10h20zm0-2H2V4a1 1 0 0 1 1-1h18a1 1 0 0 1 1 1v4zm-7 8v2h4v-2h-4z"/></symbol><symbol viewBox="0 0 24 24" id="volume-down-fill"><path fill="none" d="M0 0h24v24H0z"/><path d="M8.889 16H5a1 1 0 0 1-1-1V9a1 1 0 0 1 1-1h3.889l5.294-4.332a.5.5 0 0 1 .817.387v15.89a.5.5 0 0 1-.817.387L8.89 16zm9.974.591l-1.422-1.422A3.993 3.993 0 0 0 19 12c0-1.43-.75-2.685-1.88-3.392l1.439-1.439A5.991 5.991 0 0 1 21 12c0 1.842-.83 3.49-2.137 4.591z"/></symbol><symbol viewBox="0 0 24 24" id="volume-down-line"><path fill="none" d="M0 0h24v24H0z"/><path d="M13 7.22L9.603 10H6v4h3.603L13 16.78V7.22zM8.889 16H5a1 1 0 0 1-1-1V9a1 1 0 0 1 1-1h3.889l5.294-4.332a.5.5 0 0 1 .817.387v15.89a.5.5 0 0 1-.817.387L8.89 16zm9.974.591l-1.422-1.422A3.993 3.993 0 0 0 19 12c0-1.43-.75-2.685-1.88-3.392l1.439-1.439A5.991 5.991 0 0 1 21 12c0 1.842-.83 3.49-2.137 4.591z"/></symbol></svg>