<?xml version="1.0" standalone="no"?><!DOCTYPE svg PUBLIC "-//W3C//DTD SVG 1.1//EN" "http://www.w3.org/Graphics/SVG/1.1/DTD/svg11.dtd" >
<svg xmlns="http://www.w3.org/2000/svg">
<defs>
    <font id="remixicon" horiz-adv-x="1200">
    <font-face font-family="remixicon"
        units-per-em="1200" ascent="1200"
        descent="0" />
    <missing-glyph horiz-adv-x="0" /><glyph glyph-name="menu-fill"
            unicode="&#xEF3B;"
            horiz-adv-x="1200" d="M150 1000H1050V900H150V1000zM150 650H1050V550H150V650zM150 300H1050V200H150V300z" /><glyph glyph-name="video-fill"
            unicode="&#xF281;"
            horiz-adv-x="1200" d="M150 1000.35C150 1027.75 172.25 1050 199.65 1050H1000.35C1027.75 1050 1049.9999999999998 1027.75 1049.9999999999998 1000.35V199.6500000000001A49.7 49.7 0 0 0 1000.35 150.0000000000002H199.65A49.7 49.7 0 0 0 150 199.65V1000.35zM531.1 779.25A20.000000000000004 20.000000000000004 0 0 1 500 762.65V437.35A20.000000000000004 20.000000000000004 0 0 1 531.1 420.75L775.05 583.3499999999999A20.000000000000004 20.000000000000004 0 0 1 775.05 616.6499999999999L531.05 779.2499999999999z" /><glyph glyph-name="video-line"
            unicode="&#xF282;"
            horiz-adv-x="1200" d="M150 1000.35C150 1027.75 172.25 1050 199.65 1050H1000.35C1027.75 1050 1049.9999999999998 1027.75 1049.9999999999998 1000.35V199.6500000000001A49.7 49.7 0 0 0 1000.35 150.0000000000002H199.65A49.7 49.7 0 0 0 150 199.65V1000.35zM250 950V250H950V950H250zM531.1 779.25L775.05 616.6500000000001A20.000000000000004 20.000000000000004 0 0 0 775.05 583.3500000000001L531.05 420.7500000000001A20.000000000000004 20.000000000000004 0 0 0 499.9999999999999 437.3500000000002V762.65A20.000000000000004 20.000000000000004 0 0 0 531.0999999999999 779.25z" /><glyph glyph-name="surround-sound-line"
            unicode="&#xF1C5;"
            horiz-adv-x="1200" d="M200 950V250H1000V950H200zM150 1050H1050A50 50 0 0 0 1100 1000V200A50 50 0 0 0 1050 150H150A50 50 0 0 0 100 200V1000A50 50 0 0 0 150 1050zM352.5 843.95L423.2000000000001 773.1999999999999A249.2 249.2 0 0 1 350 596.5C350 527.5 378 465 423.2000000000001 419.7000000000001L352.5 349A348.9 348.9 0 0 0 250 596.5C250 693.15 289.2 780.65 352.5 844zM847.5 843.95A348.9 348.9 0 0 0 950 596.4499999999999A348.9 348.9 0 0 0 847.5 348.95L776.8 419.65A249.2 249.2 0 0 1 850 596.5C850 665.4999999999999 822.0000000000001 728 776.8 773.25L847.5 844zM600 546.45A50 50 0 1 1 600 646.45A50 50 0 0 1 600 546.45zM600 446.4500000000001A150 150 0 1 0 600 746.45A150 150 0 0 0 600 446.4500000000001z" /><glyph glyph-name="surround-sound-fill"
            unicode="&#xF1C4;"
            horiz-adv-x="1200" d="M150 1050H1050A50 50 0 0 0 1100 1000V200A50 50 0 0 0 1050 150H150A50 50 0 0 0 100 200V1000A50 50 0 0 0 150 1050zM352.5 843.95A348.9 348.9 0 0 1 250 596.45C250 499.8000000000001 289.2 412.3000000000001 352.5 348.95L423.2000000000001 419.65A249.2 249.2 0 0 0 350 596.5C350 665.4999999999999 378 728 423.2000000000001 773.25L352.5 844zM847.5 843.95L776.8 773.1999999999999A249.2 249.2 0 0 0 850 596.5C850 527.5 822.0000000000001 465 776.8 419.7000000000001L847.5 349A348.9 348.9 0 0 1 950 596.5A348.9 348.9 0 0 1 847.5 844zM600 446.4500000000001A150 150 0 1 1 600 746.45A150 150 0 0 1 600 446.4500000000001zM600 546.45A50 50 0 1 0 600 646.45A50 50 0 0 0 600 546.45z" /><glyph glyph-name="image-line"
            unicode="&#xEE4B;"
            horiz-adv-x="1200" d="M241.4 150L240.4000000000001 149L239.3500000000001 150H149.6A49.65 49.65 0 0 0 100 199.65V1000.35A50 50 0 0 0 149.6 1050H1050.3999999999999C1077.8 1050 1100 1027.75 1100 1000.35V199.6500000000001A50 50 0 0 0 1050.3999999999999 150.0000000000002H241.4zM1000 450V950H200V250L700 750L1000 450zM1000 308.6L700 608.6L341.4000000000001 250H1000V308.6zM400 650A100 100 0 1 0 400 850A100 100 0 0 0 400 650z" /><glyph glyph-name="image-fill"
            unicode="&#xEE4A;"
            horiz-adv-x="1200" d="M1000 950H200V250L664.6 714.7A50 50 0 0 0 735.3 714.7L1000 449.5V950zM100 1000.35A50 50 0 0 0 149.6 1050H1050.3999999999999C1077.8 1050 1100 1027.75 1100 1000.35V199.6500000000001A50 50 0 0 0 1050.3999999999999 150.0000000000002H149.6A49.65 49.65 0 0 0 100 199.65V1000.35zM400 650A100 100 0 1 0 400 850A100 100 0 0 0 400 650z" /><glyph glyph-name="link"
            unicode="&#xEEB2;"
            horiz-adv-x="1200" d="M918.2 423.2000000000001L847.5 494L918.2 564.7A250 250 0 1 1 564.6500000000001 918.25L493.95 847.5L423.2000000000001 918.2L494.0000000000001 988.9A350 350 0 0 0 989 493.9L918.2500000000002 423.2000000000001zM776.8000000000001 281.8L706.0500000000001 211.0999999999999A350 350 0 0 0 211.0500000000001 706.0999999999999L281.8000000000001 776.8L352.5 706L281.8 635.3A250 250 0 1 1 635.35 281.7499999999999L706.0500000000001 352.45L776.8000000000001 281.7499999999999zM741.4000000000001 812.1499999999999L812.1500000000001 741.4L458.6000000000001 387.9L387.8500000000002 458.5999999999999L741.4000000000001 812.0999999999999z" /><glyph glyph-name="home-4-fill"
            unicode="&#xEE1C;"
            horiz-adv-x="1200" d="M1000 200A50 50 0 0 0 950 150H250A50 50 0 0 0 200 200V650H50L566.35 1119.4A50 50 0 0 0 633.65 1119.4L1150 650H1000V200zM550 550V250H650V550H550z" /><glyph glyph-name="home-4-line"
            unicode="&#xEE1D;"
            horiz-adv-x="1200" d="M950 150H250A50 50 0 0 0 200 200V650H50L566.35 1119.4A50 50 0 0 0 633.65 1119.4L1150 650H1000V200A50 50 0 0 0 950 150zM650 250H900V742.15L600 1014.85L300 742.15V250H550V550H650V250z" /><glyph glyph-name="instagram-fill"
            unicode="&#xEE65;"
            horiz-adv-x="1200" d="M600 1100C735.85 1100 752.8000000000001 1099.5 806.1 1097C859.35 1094.5 895.5999999999999 1086.15 927.5 1073.75C960.5 1061.05 988.3 1043.85 1016.1 1016.1A245.4 245.4 0 0 0 1073.75 927.5C1086.1 895.6500000000001 1094.4999999999998 859.3499999999999 1097 806.1C1099.35 752.8 1099.9999999999998 735.85 1099.9999999999998 600C1099.9999999999998 464.15 1099.4999999999998 447.2 1097 393.9C1094.4999999999998 340.65 1086.1 304.4000000000001 1073.75 272.5A244.14999999999998 244.14999999999998 0 0 0 1016.1 183.9000000000001A245.75000000000003 245.75000000000003 0 0 0 927.5 126.25C895.65 113.9000000000001 859.35 105.5000000000002 806.1 103C752.8 100.6500000000001 735.85 100.0000000000002 600 100.0000000000002C464.15 100.0000000000002 447.2 100.5000000000002 393.9 103C340.6500000000001 105.5000000000002 304.4 113.9000000000001 272.5 126.25A244.5 244.5 0 0 0 183.9 183.9000000000001A245.19999999999996 245.19999999999996 0 0 0 126.25 272.5C113.85 304.35 105.5 340.65 103 393.9C100.65 447.2000000000001 100 464.15 100 600C100 735.85 100.5 752.8000000000001 103 806.1C105.5 859.4 113.85 895.6 126.25 927.5A244 244 0 0 0 183.9 1016.1A244.85 244.85 0 0 0 272.5 1073.75C304.4 1086.15 340.6 1094.5 393.9 1097C447.2000000000001 1099.35 464.15 1100 600 1100zM600 850A250 250 0 1 1 600 350A250 250 0 0 1 600 850zM925 862.5A62.5 62.5 0 0 1 800 862.5A62.5 62.5 0 0 1 925 862.5zM600 750A150 150 0 1 0 600 450A150 150 0 0 0 600 750z" /><glyph glyph-name="instagram-line"
            unicode="&#xEE66;"
            horiz-adv-x="1200" d="M600 750A150 150 0 1 1 600 450A150 150 0 0 1 600 750zM600 850A250 250 0 1 0 600 350A250 250 0 0 0 600 850zM925 862.5A62.5 62.5 0 0 0 800 862.5A62.5 62.5 0 0 0 925 862.5zM600 1000C476.3 1000 456.1 999.65 398.55 997.1C359.35 995.25 333.05 990 308.65 980.5C286.95 972.1 271.3 962.05 254.65 945.35A144.5 144.5 0 0 1 219.45 891.35C209.95 866.8499999999999 204.7 840.6 202.9 801.45C200.3 746.25 200 726.95 200 600C200 476.3 200.35 456.1 202.9 398.55C204.75 359.4 210 333.0500000000001 219.45 308.7C227.95 286.9500000000001 237.95 271.3 254.55 254.7000000000001C271.4 237.9000000000001 287.05 227.8500000000002 308.55 219.5500000000001C333.25 210.0000000000001 359.55 204.7000000000001 398.55 202.9000000000002C453.7499999999999 200.3 473.05 200 600 200C723.7 200 743.9 200.35 801.45 202.9C840.55 204.75 866.9000000000001 210 891.3000000000001 219.4499999999999C912.95 227.9 928.7 237.9500000000001 945.3 254.5500000000001C962.15 271.4000000000001 972.2 287.05 980.5 308.55C990 333.2 995.3 359.55 997.1 398.55C999.7 453.75 1000 473.0500000000001 1000 600C1000 723.7 999.65 743.9 997.1 801.45C995.25 840.55 990 866.95 980.5 891.35A145.55 145.55 0 0 1 945.35 945.35A144.2 144.2 0 0 1 891.3499999999999 980.55C866.85 990.05 840.55 995.3 801.4499999999998 997.1C746.25 999.7 726.9499999999999 1000 600 1000zM600 1100C735.85 1100 752.8000000000001 1099.5 806.1 1097C859.35 1094.5 895.5999999999999 1086.15 927.5 1073.75C960.5 1061.05 988.3 1043.85 1016.1 1016.1A245.4 245.4 0 0 0 1073.75 927.5C1086.1 895.6500000000001 1094.4999999999998 859.3499999999999 1097 806.1C1099.35 752.8 1099.9999999999998 735.85 1099.9999999999998 600C1099.9999999999998 464.15 1099.4999999999998 447.2 1097 393.9C1094.4999999999998 340.65 1086.1 304.4000000000001 1073.75 272.5A244.14999999999998 244.14999999999998 0 0 0 1016.1 183.9000000000001A245.75000000000003 245.75000000000003 0 0 0 927.5 126.25C895.65 113.9000000000001 859.35 105.5000000000002 806.1 103C752.8 100.6500000000001 735.85 100.0000000000002 600 100.0000000000002C464.15 100.0000000000002 447.2 100.5000000000002 393.9 103C340.6500000000001 105.5000000000002 304.4 113.9000000000001 272.5 126.25A244.5 244.5 0 0 0 183.9 183.9000000000001A245.19999999999996 245.19999999999996 0 0 0 126.25 272.5C113.85 304.35 105.5 340.65 103 393.9C100.65 447.2000000000001 100 464.15 100 600C100 735.85 100.5 752.8000000000001 103 806.1C105.5 859.4 113.85 895.6 126.25 927.5A244 244 0 0 0 183.9 1016.1A244.85 244.85 0 0 0 272.5 1073.75C304.4 1086.15 340.6 1094.5 393.9 1097C447.2000000000001 1099.35 464.15 1100 600 1100z" /><glyph glyph-name="telegram-line"
            unicode="&#xF1F0;"
            horiz-adv-x="1200" d="M600 200A400 400 0 1 1 600 1000A400 400 0 0 1 600 200zM600 100C323.85 100 100 323.85 100 600S323.85 1100 600 1100S1100 876.15 1100 600S876.15 100 600 100zM444.5 541.5L319.6 580.45C292.6 588.6999999999999 292.45 607.3000000000001 325.65 620.65L812.3000000000001 808.65C840.5500000000002 820.1500000000001 856.5500000000002 805.6 847.4 769.15L764.5500000000001 378.15C758.75 350.3 742 343.6499999999999 718.75 356.5L591.2 450.9L531.75 393.4999999999999C525.65 387.5999999999999 520.6999999999999 382.5499999999999 511.3 381.2999999999999C501.95 379.9999999999999 494.25 382.8 488.5999999999999 398.2999999999999L445.1 541.8499999999999L444.5 541.4499999999999z" /><glyph glyph-name="telegram-fill"
            unicode="&#xF1EF;"
            horiz-adv-x="1200" d="M600 100C323.85 100 100 323.85 100 600S323.85 1100 600 1100S1100 876.15 1100 600S876.15 100 600 100zM444.5 541.5L445.1500000000001 541.85L488.65 398.3499999999999C494.25 382.8 501.95 379.9999999999999 511.3 381.2999999999999C520.6999999999999 382.5499999999999 525.65 387.5999999999999 531.8 393.4999999999999L591.2 450.8999999999999L718.6999999999999 356.4999999999998C741.9999999999999 343.6499999999998 758.75 350.2999999999999 764.55 378.0999999999997L847.4 769.1999999999996C856.55 805.5999999999997 840.55 820.1999999999996 812.3000000000001 808.5999999999997L325.6500000000001 620.5999999999997C292.4500000000001 607.2999999999997 292.6500000000001 588.6999999999997 319.6500000000001 580.4499999999996L444.5 541.4499999999997z" /><glyph glyph-name="whatsapp-line"
            unicode="&#xF2BC;"
            horiz-adv-x="1200" d="M362.65 275.3L398.85 254.1500000000001A397.65000000000003 397.65000000000003 0 0 1 600 200A400 400 0 1 1 200 600C200 528.2 218.85 459.35 254.2 398.8L275.3 362.5999999999999L242.65 242.55L362.65 275.3zM100.2 100L167.8 348.4A497.7000000000001 497.7000000000001 0 0 0 100 600C100 876.15 323.85 1100 600 1100S1100 876.15 1100 600S876.15 100 600 100A497.7000000000001 497.7000000000001 0 0 0 348.5 167.75L100.2 100zM419.55 834.6C426.25 835.1 433 835.1 439.7000000000001 834.8C442.4000000000001 834.6 445.1 834.3 447.8000000000001 834C455.7500000000001 833.1 464.5000000000001 828.25 467.4500000000001 821.55C482.3500000000001 787.75 496.8500000000001 753.7 510.8500000000001 719.55C513.95 711.95 512.1000000000001 702.2 506.2000000000001 692.6999999999999A219 219 0 0 0 493.0500000000001 674.0999999999999C487.4000000000001 666.85 475.2500000000001 653.55 475.2500000000001 653.55S470.3000000000001 647.65 472.2000000000002 640.3C472.9000000000001 637.5 475.2000000000002 633.4499999999999 477.3000000000001 630.05L480.2500000000001 625.3C493.0500000000001 603.9499999999999 510.2500000000001 582.3 531.2500000000001 561.8999999999999C537.25 556.0999999999999 543.1000000000001 550.1499999999999 549.4000000000001 544.5999999999999C572.8000000000001 523.9499999999998 599.3000000000001 507.0999999999999 627.9000000000001 494.5999999999999L628.1500000000001 494.4999999999999C632.4000000000002 492.6499999999999 634.5500000000002 491.6499999999999 640.7500000000001 488.9999999999999C643.8500000000001 487.6999999999999 647.0500000000002 486.55 650.3000000000002 485.6999999999998A17.499999999999996 17.499999999999996 0 0 1 668.6500000000002 492.1999999999999C704.8500000000003 536.05 708.1500000000002 538.8999999999999 708.4500000000002 538.8999999999999V538.7999999999998A24.1 24.1 0 0 0 727.3500000000003 545.1499999999999C730.3500000000003 544.9499999999998 733.4000000000002 544.3999999999999 736.2000000000002 543.1499999999999C762.7500000000002 530.9999999999999 806.2000000000002 512.0499999999998 806.2000000000002 512.0499999999998L835.3000000000002 498.9999999999999C840.2 496.6499999999999 844.6500000000002 491.0999999999999 844.8000000000002 485.7499999999999C845.0000000000002 482.3999999999999 845.3000000000003 476.9999999999999 844.1500000000001 467.0999999999999C842.5500000000002 454.1499999999999 838.6500000000002 438.5999999999999 834.7500000000002 430.45A57.75000000000001 57.75000000000001 0 0 0 824.2500000000001 415.3499999999999A118.9 118.9 0 0 0 807.7500000000002 400.95A185.5 185.5 0 0 0 801.5000000000002 396.45A251.2 251.2 0 0 0 782.3500000000003 385.45A99.50000000000001 99.50000000000001 0 0 0 740.7000000000003 373.95C731.4500000000003 373.45 722.2000000000003 372.7499999999999 712.9000000000003 373.25C712.5000000000003 373.25 684.5000000000003 377.6 684.5000000000003 377.6A472.40000000000003 472.40000000000003 0 0 0 492.5000000000003 479.9C481.2000000000003 489.8499999999999 470.7500000000003 500.55 460.0500000000004 511.1999999999999C415.5500000000004 555.4499999999999 381.9500000000004 603.1999999999999 361.5500000000004 648.2999999999998A173.50000000000003 173.50000000000003 0 0 0 345 719A136.45000000000002 136.45000000000002 0 0 0 373.2000000000001 803C376.85 807.7 380.3 812.6 386.25 818.25C392.6 824.25 396.6 827.45 400.95 829.65A48.05 48.05 0 0 0 419.5 834.65z" /><glyph glyph-name="whatsapp-fill"
            unicode="&#xF2BB;"
            horiz-adv-x="1200" d="M100.2 100L167.8 348.4A497.7000000000001 497.7000000000001 0 0 0 100 600C100 876.15 323.85 1100 600 1100S1100 876.15 1100 600S876.15 100 600 100A497.7000000000001 497.7000000000001 0 0 0 348.5 167.75L100.2 100zM419.55 834.6A48.05 48.05 0 0 1 401 829.6A64.65 64.65 0 0 1 386.3 818.2C380.3 812.55 376.9000000000001 807.6500000000001 373.25 802.9000000000001A136.45000000000002 136.45000000000002 0 0 1 345 719C345.1 694.5 351.5 670.65 361.5 648.35C381.95 603.2500000000001 415.6000000000001 555.5000000000001 460.05 511.2500000000001C470.7500000000001 500.6000000000001 481.2 489.9000000000001 492.45 479.95A472.40000000000003 472.40000000000003 0 0 1 684.45 377.6500000000001L712.9 373.3000000000001C722.15 372.8 731.3999999999999 373.5000000000001 740.7 373.9500000000002A99.50000000000001 99.50000000000001 0 0 1 782.35 385.5000000000003C790.65 389.9000000000003 794.55 392.1000000000003 801.5 396.5000000000001C801.5 396.5000000000001 803.65 397.9000000000001 807.75 401.0000000000001C814.5000000000001 406.0000000000001 818.6500000000001 409.5500000000002 824.25 415.4000000000002C828.3999999999999 419.7000000000002 832 424.7500000000001 834.75 430.5000000000001C838.65 438.6500000000002 842.55 454.2000000000002 844.15 467.1500000000002C845.35 477.0500000000002 844.9999999999999 482.4500000000002 844.8499999999999 485.8000000000002C844.6499999999999 491.1500000000001 840.1999999999999 496.7000000000002 835.3499999999999 499.0500000000002L806.2499999999998 512.1000000000001S762.7499999999999 531.0500000000001 736.1999999999998 543.1500000000002A24.900000000000002 24.900000000000002 0 0 1 727.3499999999999 545.2000000000002A24.1 24.1 0 0 1 708.4499999999998 538.8500000000001V538.9500000000002C708.1999999999998 538.9500000000002 704.8499999999999 536.1000000000001 668.6999999999998 492.3000000000002A17.499999999999996 17.499999999999996 0 0 0 650.2999999999998 485.8000000000002A70.8 70.8 0 0 0 640.7499999999998 489.1000000000001C634.5499999999997 491.7000000000002 632.3999999999999 492.7000000000002 628.1499999999997 494.5500000000002L627.8999999999997 494.6500000000002A300.5 300.5 0 0 0 549.3999999999997 544.6500000000002C543.0999999999997 550.1500000000002 537.2499999999997 556.1500000000002 531.2499999999998 561.9500000000003A314.8 314.8 0 0 0 480.2499999999998 625.3500000000003L477.2999999999998 630.1000000000003A46.15 46.15 0 0 0 472.1999999999998 640.3500000000003C470.2999999999998 647.7000000000003 475.2499999999998 653.6000000000004 475.2499999999998 653.6000000000004S487.3999999999998 666.9000000000003 493.0499999999998 674.1000000000004A219 219 0 0 1 506.1999999999998 692.7500000000002C512.0999999999998 702.2500000000002 513.9499999999997 712.0000000000002 510.8499999999997 719.5500000000003C496.8499999999998 753.7500000000002 482.3499999999997 787.8000000000003 467.4499999999998 821.6000000000004C464.4999999999998 828.3000000000003 455.7499999999998 833.1000000000004 447.7999999999998 834.0500000000003C445.0999999999997 834.3500000000004 442.3999999999997 834.6500000000003 439.6999999999997 834.8500000000003A169.25 169.25 0 0 1 419.5499999999997 834.6500000000003z" /><glyph glyph-name="twitter-fill"
            unicode="&#xF23A;"
            horiz-adv-x="1200" d="M1108.1 917.2A419.2 419.2 0 0 0 987.9999999999998 884.3A209.8 209.8 0 0 1 1080 1000C1039 975.6 994.05 958.5 947.2000000000002 949.25A209.10000000000005 209.10000000000005 0 0 1 590.9000000000001 758.55A593.7 593.7 0 0 0 159.9000000000001 977.05A208.40000000000003 208.40000000000003 0 0 1 131.6000000000001 871.8999999999999C131.6000000000001 799.4 168.5000000000001 735.3499999999999 224.6000000000001 697.8499999999999A208.40000000000003 208.40000000000003 0 0 0 129.9000000000001 724V721.4A209.24999999999997 209.24999999999997 0 0 1 297.6500000000002 516.3499999999999A210.5 210.5 0 0 0 203.1500000000002 512.75A209.24999999999997 209.24999999999997 0 0 1 398.5 367.5000000000001A419.7 419.7 0 0 0 88.95 280.9000000000001A591.5 591.5 0 0 1 409.45 186.9000000000002C794.1 186.9000000000002 1004.45 505.5500000000002 1004.45 781.9000000000001C1004.45 790.9000000000001 1004.2 800.0000000000002 1003.7999999999998 808.9000000000001A424.8 424.8 0 0 1 1108.1499999999999 917.1500000000002z" /><glyph glyph-name="time-line"
            unicode="&#xF20F;"
            horiz-adv-x="1200" d="M600 100C323.85 100 100 323.85 100 600S323.85 1100 600 1100S1100 876.15 1100 600S876.15 100 600 100zM600 200A400 400 0 1 1 600 1000A400 400 0 0 1 600 200zM650 600H850V500H550V850H650V600z" /><glyph glyph-name="time-fill"
            unicode="&#xF20E;"
            horiz-adv-x="1200" d="M600 100C323.85 100 100 323.85 100 600S323.85 1100 600 1100S1100 876.15 1100 600S876.15 100 600 100zM650 600V850H550V500H850V600H650z" /><glyph glyph-name="chat-1-line"
            unicode="&#xEB4D;"
            horiz-adv-x="1200" d="M500 1050H700A400 400 0 1 0 700 250V75C450 175 100 325 100 650A400 400 0 0 0 500 1050zM600 350H700A300 300 0 1 1 700 950H500A300 300 0 0 1 200 650C200 469.5 323.1 351.7 600 226V350z" /><glyph glyph-name="chat-1-fill"
            unicode="&#xEB4C;"
            horiz-adv-x="1200" d="M500 1050H700A400 400 0 1 0 700 250V75C450 175 100 325 100 650A400 400 0 0 0 500 1050z" /><glyph glyph-name="message-3-line"
            unicode="&#xEF46;"
            horiz-adv-x="1200" d="M100 750.3A299.50000000000006 299.50000000000006 0 0 0 400 1050H800C965.65 1050 1100 915.25 1100 750.3V150H400C234.35 150 100 284.75 100 449.7000000000001V750.3zM1000 250V750.3A200.2 200.2 0 0 1 800 950H400A199.5 199.5 0 0 1 200 750.3V449.7000000000001A200.2 200.2 0 0 1 400 250H1000zM700 650H800V550H700V650zM400 650H500V550H400V650z" /><glyph glyph-name="message-3-fill"
            unicode="&#xEF45;"
            horiz-adv-x="1200" d="M100 750.3A299.50000000000006 299.50000000000006 0 0 0 400 1050H800C965.65 1050 1100 915.25 1100 750.3V150H400C234.35 150 100 284.75 100 449.7000000000001V750.3zM700 650V550H800V650H700zM400 650V550H500V650H400z" /><glyph glyph-name="node-tree"
            unicode="&#xEF90;"
            horiz-adv-x="1200" d="M500 1100C527.6 1100 550 1077.6 550 1050V850C550 822.4000000000001 527.6 800 500 800H400V700H650V750C650 777.5999999999999 672.4 800 700 800H1000C1027.6 800 1050 777.5999999999999 1050 750V550C1050 522.4 1027.6 500 1000 500H700C672.4 500 650 522.4 650 550V600H400V300H650V350C650 377.6 672.4 400 700 400H1000C1027.6 400 1050 377.6 1050 350V150C1050 122.4000000000001 1027.6 100 1000 100H700C672.4 100 650 122.4000000000001 650 150V200H350C322.4000000000001 200 300 222.4 300 250V800H200C172.4 800 150 822.4000000000001 150 850V1050C150 1077.6 172.4 1100 200 1100H500zM950 300H750V200H950V300zM950 700H750V600H950V700zM450 1000H250V900H450V1000z" /><glyph glyph-name="profile-line"
            unicode="&#xF02D;"
            horiz-adv-x="1200" d="M100 1000.35A50 50 0 0 0 149.6 1050H1050.3999999999999C1077.8 1050 1100 1027.75 1100 1000.35V199.6500000000001A50 50 0 0 0 1050.3999999999999 150.0000000000002H149.6A49.65 49.65 0 0 0 100 199.65V1000.35zM200 950V250H1000V950H200zM300 850H600V550H300V850zM400 750V650H500V750H400zM300 450H900V350H300V450zM700 850H900V750H700V850zM700 650H900V550H700V650z" /><glyph glyph-name="profile-fill"
            unicode="&#xF02C;"
            horiz-adv-x="1200" d="M100 1000.35A50 50 0 0 0 149.6 1050H1050.3999999999999C1077.8 1050 1100 1027.75 1100 1000.35V199.6500000000001A50 50 0 0 0 1050.3999999999999 150.0000000000002H149.6A49.65 49.65 0 0 0 100 199.65V1000.35zM300 450V350H900V450H300zM300 850V550H600V850H300zM700 850V750H900V850H700zM700 650V550H900V650H700zM400 750H500V650H400V750z" /><glyph glyph-name="login-circle-fill"
            unicode="&#xEED5;"
            horiz-adv-x="1200" d="M500 650H102.5C127.5 902.65 340.7 1100 600 1100C876.15 1100 1100 876.15 1100 600S876.15 100 600 100C340.75 100 127.55 297.3499999999999 102.5 550H500V400L750 600L500 800V650z" /><glyph glyph-name="logout-circle-line"
            unicode="&#xEEDC;"
            horiz-adv-x="1200" d="M250 650H650V550H250V400L0 600L250 800V650zM200 300H335.4000000000001A400 400 0 1 1 335.4000000000001 900H200A499.25 499.25 0 0 0 600 1100C876.15 1100 1100 876.15 1100 600S876.15 100 600 100A499.25 499.25 0 0 0 200 300z" /><glyph glyph-name="logout-circle-fill"
            unicode="&#xEEDB;"
            horiz-adv-x="1200" d="M600 100C323.85 100 100 323.85 100 600S323.85 1100 600 1100S1100 876.15 1100 600S876.15 100 600 100zM350 650V800L100 600L350 400V550H750V650H350z" /><glyph glyph-name="dashboard-line"
            unicode="&#xEC14;"
            horiz-adv-x="1200" d="M650 150V650H1050V150H650zM150 550V1050H550V550H150zM450 650V950H250V650H450zM150 150V450H550V150H150zM250 250H450V350H250V250zM750 250H950V550H750V250zM650 1050H1050V750H650V1050zM750 950V850H950V950H750z" /><glyph glyph-name="dashboard-fill"
            unicode="&#xEC13;"
            horiz-adv-x="1200" d="M150 550H550V1050H150V550zM150 150H550V450H150V150zM650 150H1050V650H650V150zM650 1050V750H1050V1050H650z" /><glyph glyph-name="gallery-line"
            unicode="&#xEDA5;"
            horiz-adv-x="1200" d="M1000 550C916.1 550 837.5500000000001 527 770.35 487.05A749.2 749.2 0 0 0 907.35 250H1000V550zM800.2 250C702.2 484.9 470.4 650 200 650V250H800.1999999999999zM200 750C391.5 750 566.15 678.25 698.7 560.2A547.4499999999999 547.4499999999999 0 0 0 1000 650V1050H1050.3999999999999C1077.8 1050 1100 1027.75 1100 1000.35V199.6500000000001A50 50 0 0 0 1050.3999999999999 150.0000000000002H149.6A49.65 49.65 0 0 0 100 199.65V1000.35A50 50 0 0 0 149.6 1050H300V1150H400V950H200V750zM900 1150V950H500V1050H800V1150H900zM825 700A75 75 0 1 0 825 850A75 75 0 0 0 825 700z" /><glyph glyph-name="gallery-fill"
            unicode="&#xEDA4;"
            horiz-adv-x="1200" d="M870.4499999999999 250C831.65 369.9500000000001 756.5999999999999 444.25 657.15 530.1A547.7 547.7 0 0 0 1000 650V1050H1050.3999999999999C1077.8 1050 1100 1027.75 1100 1000.35V199.6500000000001A50 50 0 0 0 1050.3999999999999 150.0000000000002H149.6A49.65 49.65 0 0 0 100 199.65V1000.35A50 50 0 0 0 149.6 1050H300V1150H400V950H200V600C460.9999999999999 600 683.1 476.9 765.65 250H870.4499999999999zM900 1150V950H500V1050H800V1150H900zM825 700A75 75 0 1 0 825 850A75 75 0 0 0 825 700z" /><glyph glyph-name="facebook-circle-line"
            unicode="&#xECBB;"
            horiz-adv-x="1200" d="M650 203.1A400.04999999999995 400.04999999999995 0 0 1 600 1000A400 400 0 0 1 550 203.0999999999999V500H450V600H550V682.7C550 749.55 557 773.8 570 798.25A136.29999999999998 136.29999999999998 0 0 0 626.8 855C645.9 865.25 669.65 871.4 711.15 874.05C727.6 875.0999999999999 748.9 873.8 775.05 870.05V775.05H750C704.15 775.05 685.2 772.9000000000001 673.9 766.8499999999999A36.35 36.35 0 0 1 658.1999999999999 751.15C652.2 739.8499999999999 650 728.6500000000001 650 682.75V600H775L750 500H650V203.1zM600 100C323.85 100 100 323.85 100 600S323.85 1100 600 1100S1100 876.15 1100 600S876.15 100 600 100z" /><glyph glyph-name="facebook-circle-fill"
            unicode="&#xECBA;"
            horiz-adv-x="1200" d="M600 1100C323.85 1100 100 876.15 100 600C100 350.4500000000001 282.85 143.5999999999999 521.9 106.0500000000002V455.5H394.9000000000001V600H521.9V710.15C521.9 835.45 596.5 904.65 710.75 904.65C765.4499999999999 904.65 822.65 894.9 822.65 894.9V771.8999999999999H759.65C697.5 771.8999999999999 678.15 733.3499999999999 678.15 693.8V600H816.8L794.65 455.5H678.15V106.05C917.15 143.55 1100 350.5000000000001 1100 600C1100 876.15 876.15 1100 600 1100z" /><glyph glyph-name="twitter-line"
            unicode="&#xF23B;"
            horiz-adv-x="1200" d="M765 922.5A145 145 0 0 1 620 780.15L618.6 701.4000000000001A30 30 0 0 0 584.6 672.25L506.55 682.85C403.85 696.8499999999999 305.45 744.15 211.05 822.8C181.15 657.3 239.55 542.65 380.2 454.1999999999999L467.5500000000001 399.3000000000001A30 30 0 0 0 469.2500000000001 349.6500000000001L389.6500000000001 291.4999999999999C437 288.5499999999999 481.95 290.65 519.25 298.05C755.15 345.15 912.0000000000002 522.65 912.0000000000002 815.45C912.0000000000002 839.3499999999999 861.4000000000001 922.5 765.0000000000001 922.5zM520 782A245 245 0 0 0 939.25 949.75C974.8 950 1005.05 941 1072.7 982C1055.95 900 1047.7 864.4000000000001 1012.0000000000002 815.45C1012.0000000000002 433.3500000000002 777.1500000000001 247.5500000000001 538.8500000000001 200C375.4500000000002 167.3999999999999 137.8500000000002 220.9500000000001 69.7500000000002 292.0500000000001C104.4500000000002 294.75 245.4500000000002 309.9 326.9500000000002 369.5500000000001C258 415 -16.45 576.5 163.9 1010.7C248.55 911.85 334.4000000000001 844.55 421.4000000000001 808.8499999999999C479.3 785.1 493.5000000000001 785.5999999999999 520.0500000000001 781.95z" /><glyph glyph-name="linkedin-line"
            unicode="&#xEEB6;"
            horiz-adv-x="1200" d="M600 722.5C645.85 769.35 705.5500000000001 800 775 800A275 275 0 0 0 1050 525V150H950V525A175 175 0 0 1 600 525V150H500V775H600V722.5zM250 875A75 75 0 1 0 250 1025A75 75 0 0 0 250 875zM200 775H300V150H200V775z" /><glyph glyph-name="linkedin-fill"
            unicode="&#xEEB5;"
            horiz-adv-x="1200" d="M347 950A100 100 0 1 0 147 950.1A100 100 0 0 0 347 950zM350 776H150V150H350V776zM666 776H467V150H664V478.5C664 661.5 902.4999999999998 678.5 902.4999999999998 478.5V150H1100V546.5C1100 855 747.0000000000001 843.5 664 692L665.9999999999999 776z" /><glyph glyph-name="search-line"
            unicode="&#xF0D1;"
            horiz-adv-x="1200" d="M901.55 369.15L1115.7 155.05L1044.95 84.3L830.85 298.4500000000001A448.00000000000006 448.00000000000006 0 0 0 550 200C301.6 200 100 401.6 100 650S301.6 1100 550 1100S1000 898.4 1000 650A448.00000000000006 448.00000000000006 0 0 0 901.55 369.15zM801.2499999999999 406.25A348.84999999999997 348.84999999999997 0 0 1 900 650C900 843.4000000000001 743.35 1000 550 1000C356.6 1000 200 843.4000000000001 200 650C200 456.65 356.6 300 550 300A348.84999999999997 348.84999999999997 0 0 1 793.75 398.7500000000001L801.2499999999999 406.2500000000001z" /><glyph glyph-name="search-fill"
            unicode="&#xF0D0;"
            horiz-adv-x="1200" d="M901.55 369.15L1115.7 155.05L1044.95 84.3L830.85 298.4500000000001A448.00000000000006 448.00000000000006 0 0 0 550 200C301.6 200 100 401.6 100 650S301.6 1100 550 1100S1000 898.4 1000 650A448.00000000000006 448.00000000000006 0 0 0 901.55 369.15z" /><glyph glyph-name="mail-line"
            unicode="&#xEEF6;"
            horiz-adv-x="1200" d="M150 1050H1050A50 50 0 0 0 1100 1000V200A50 50 0 0 0 1050 150H150A50 50 0 0 0 100 200V1000A50 50 0 0 0 150 1050zM1000 838.0999999999999L603.5999999999999 483.0999999999999L200 839.2V250H1000V838.0999999999999zM225.55 950L603.05 616.9000000000001L975.1 950H225.55z" /><glyph glyph-name="mail-fill"
            unicode="&#xEEF3;"
            horiz-adv-x="1200" d="M150 1050H1050A50 50 0 0 0 1100 1000V200A50 50 0 0 0 1050 150H150A50 50 0 0 0 100 200V1000A50 50 0 0 0 150 1050zM603 615.85L282.4 888.0999999999999L217.65 811.9000000000001L603.65 484.15L982.7 812.15L917.3 887.8L603.05 615.85z" /><glyph glyph-name="notification-line"
            unicode="&#xEF9A;"
            horiz-adv-x="1200" d="M250 300H950V648.45C950 842.6 793.3 1000 600 1000S250 842.6 250 648.45V300zM600 1100C848.5 1100 1050 897.8499999999999 1050 648.4499999999999V200H150V648.4499999999999C150 897.8499999999999 351.5 1100 600 1100zM475 150H725A125 125 0 1 0 475 150z" /><glyph glyph-name="notification-fill"
            unicode="&#xEF99;"
            horiz-adv-x="1200" d="M600 1100C848.5 1100 1050 897.8499999999999 1050 648.4499999999999V200H150V648.4499999999999C150 897.8499999999999 351.5 1100 600 1100zM475 150H725A125 125 0 1 0 475 150z" /><glyph glyph-name="user-6-line"
            unicode="&#xF25C;"
            horiz-adv-x="1200" d="M600 350C783.0999999999999 350 943.2500000000002 271.25 1030.35 153.75L938.25 110.2000000000001C867.35 194.2000000000001 742.35 250 600 250C457.65 250 332.65 194.2000000000001 261.75 110.2000000000001L169.7 153.8C256.8 271.3 416.9 350 600 350zM600 1100A250 250 0 0 0 850 850V700A250 250 0 0 0 610.8499999999999 450.25L600 450A250 250 0 0 0 350 700V850A250 250 0 0 0 589.1500000000001 1099.75L600 1100zM600 1000A150 150 0 0 1 450.25 858.8L450 850V700A150 150 0 0 1 749.75 691.2L750 700V850A150 150 0 0 1 600 1000z" /><glyph glyph-name="user-6-fill"
            unicode="&#xF25B;"
            horiz-adv-x="1200" d="M600 350C783.0999999999999 350 943.2500000000002 271.25 1030.35 153.75L938.25 110.2000000000001C867.35 194.2000000000001 742.35 250 600 250C457.65 250 332.65 194.2000000000001 261.75 110.2000000000001L169.7 153.8C256.8 271.3 416.9 350 600 350zM600 1100A250 250 0 0 0 850 850V700A250 250 0 0 0 350 700V850A250 250 0 0 0 600 1100z" /><glyph glyph-name="map-pin-line"
            unicode="&#xEF14;"
            horiz-adv-x="1200" d="M600 155L847.5 402.5A350 350 0 1 1 352.5 402.5L600 155zM600 13.6000000000001L281.8 331.8000000000002A450 450 0 1 0 918.2 331.8000000000002L600 13.5999999999999zM600 550A100 100 0 1 1 600 750A100 100 0 0 1 600 550zM600 450A200 200 0 1 0 600 850A200 200 0 0 0 600 450z" /><glyph glyph-name="map-pin-fill"
            unicode="&#xEF13;"
            horiz-adv-x="1200" d="M918.2 331.8L600 13.5999999999999L281.8 331.8A450 450 0 1 0 918.2 331.8zM600 450A200 200 0 1 1 600 850A200 200 0 0 1 600 450zM600 550A100 100 0 1 0 600 750A100 100 0 0 0 600 550z" /><glyph glyph-name="hand-heart-line"
            unicode="&#xEDF3;"
            horiz-adv-x="1200" d="M250 750A50 50 0 0 0 300 700A348.5 348.5 0 0 0 516.5 625H625C691.6 625 751.5 596.05 792.65 550.05L950 550A250 250 0 0 0 1175.8 407.4500000000001C1057.55 251.4 866.0999999999999 150 650 150C510.5000000000001 150 392.5 180.1500000000001 297 232.9000000000001A49.900000000000006 49.900000000000006 0 0 0 250 200H100A50 50 0 0 0 50 250V700A50 50 0 0 0 100 750H250zM300.05 600L300 348.95L302.25 347.3C392 284.3 508.9 250 650 250C800.2 250 939.95 307.8 1041.75 406.5L1048.4 413.1499999999999L1042.3999999999999 418.1499999999999A149.7 149.7 0 0 1 960.2499999999998 449.65L950 450L844.3999999999999 450.05C848.05 433.9500000000001 849.9999999999998 417.2 849.9999999999998 400V350H400V450L739.5 450.05L737.8 453.9499999999999A125.04999999999998 125.04999999999998 0 0 1 633.1999999999999 524.75L625 525H478.5A249.25 249.25 0 0 1 300.1 600zM200 650H150V300H200V650zM682.3000000000001 1021.25L700 1003.5L717.6999999999999 1021.2A125 125 0 1 0 894.4499999999999 844.4L700 650L505.5 844.5A125 125 0 1 0 682.3 1021.25zM576.3 950.5A25 25 0 0 1 573.3 918.65L576.1999999999999 915.2L700 791.5L823.8 915.2A25 25 0 0 1 826.6999999999999 947.1L823.8 950.6A25 25 0 0 1 791.9 953.45L788.4 950.55L699.9499999999999 862.1500000000001L611.5999999999999 950.65L608.1999999999999 953.45A25 25 0 0 1 576.3 950.55z" /><glyph glyph-name="hand-heart-fill"
            unicode="&#xEDF2;"
            horiz-adv-x="1200" d="M466.5 625H575A225 225 0 0 0 800 400H449.9500000000001L450 350H850V400A278.90000000000003 278.90000000000003 0 0 1 805.7 550H950A250 250 0 0 0 1175.8 407.4500000000001C1057.55 251.4 866.0999999999999 150 650 150C511.95 150 395 179.5 300 231.25L300 696.45A348.34999999999997 348.34999999999997 0 0 0 466.5 625zM200 750A50 50 0 0 0 249.65 705.85L250 700V250A50 50 0 0 0 200 200H100A50 50 0 0 0 50 250V700A50 50 0 0 0 100 750H200zM682.3000000000001 1021.25L700 1003.5L717.6999999999999 1021.2A125 125 0 1 0 894.4499999999999 844.4L700 650L505.5 844.5A125 125 0 1 0 682.3 1021.25z" /><glyph glyph-name="question-line"
            unicode="&#xF045;"
            horiz-adv-x="1200" d="M600 100C323.85 100 100 323.85 100 600S323.85 1100 600 1100S1100 876.15 1100 600S876.15 100 600 100zM600 200A400 400 0 1 1 600 1000A400 400 0 0 1 600 200zM550 450H650V350H550V450zM650 532.25V500H550V575A50 50 0 0 0 600 625A75 75 0 1 1 526.45 714.7L428.35 734.3500000000001A175.04999999999998 175.04999999999998 0 1 0 650 532.25z" /><glyph glyph-name="question-fill"
            unicode="&#xF044;"
            horiz-adv-x="1200" d="M600 100C323.85 100 100 323.85 100 600S323.85 1100 600 1100S1100 876.15 1100 600S876.15 100 600 100zM550 450V350H650V450H550zM650 532.25A175.1 175.1 0 0 1 600 875A175.04999999999998 175.04999999999998 0 0 1 428.35 734.3499999999999L526.45 714.6999999999999A75 75 0 1 0 600 625A50 50 0 0 1 550 575V500H650V532.25z" /><glyph glyph-name="delete-bin-2-line"
            unicode="&#xEC1E;"
            horiz-adv-x="1200" d="M850 900H1100V800H1000V150A50 50 0 0 0 950 100H250A50 50 0 0 0 200 150V800H100V900H350V1050A50 50 0 0 0 400 1100H800A50 50 0 0 0 850 1050V900zM900 800H300V200H900V800zM670.6999999999999 500L759.1 411.5999999999999L688.4000000000001 340.8999999999999L600 429.3000000000001L511.6 340.9000000000001L440.9 411.6L529.3000000000001 500L440.9 588.4000000000001L511.6 659.1L600 570.6999999999999L688.4000000000001 659.1L759.1 588.4000000000001L670.6999999999999 500zM450 1000V900H750V1000H450z" /><glyph glyph-name="delete-bin-2-fill"
            unicode="&#xEC1D;"
            horiz-adv-x="1200" d="M350 900V1050A50 50 0 0 0 400 1100H800A50 50 0 0 0 850 1050V900H1100V800H1000V150A50 50 0 0 0 950 100H250A50 50 0 0 0 200 150V800H100V900H350zM670.6999999999999 500L759.1 588.4000000000001L688.4000000000001 659.1L600 570.6999999999999L511.6 659.1L440.9 588.4000000000001L529.3000000000001 500L440.9 411.5999999999999L511.6 340.8999999999999L600 429.3000000000001L688.4000000000001 340.9000000000001L759.1 411.6L670.6999999999999 500zM450 1000V900H750V1000H450z" /><glyph glyph-name="edit-line"
            unicode="&#xEC86;"
            horiz-adv-x="1200" d="M320.7 400L827.8000000000001 907.1L757.1 977.8L250 470.6999999999999V400H320.7zM362.15 300H150V512.15L721.75 1083.9A50 50 0 0 0 792.45 1083.9L933.9 942.45A50 50 0 0 0 933.9 871.75L362.1500000000001 300zM150 200H1050V100H150V200z" /><glyph glyph-name="edit-fill"
            unicode="&#xEC85;"
            horiz-adv-x="1200" d="M362.1500000000001 300H150V512.15L721.75 1083.9A50 50 0 0 0 792.45 1083.9L933.9 942.45A50 50 0 0 0 933.9 871.75L362.1500000000001 300zM150 200H1050V100H150V200z" /><glyph glyph-name="user-add-line"
            unicode="&#xF25E;"
            horiz-adv-x="1200" d="M700 487.4V382.9000000000001A300 300 0 0 1 300 100L200 100.05A400 400 0 0 0 700 487.4500000000002zM600 550C434.25 550 300 684.25 300 850S434.25 1150 600 1150S900 1015.75 900 850S765.75 550 600 550zM600 650C710.5 650 800 739.5 800 850S710.5 1050 600 1050S400 960.5 400 850S489.4999999999999 650 600 650zM900 350V500H1000V350H1150V250H1000V100H900V250H750V350H900z" /><glyph glyph-name="user-add-fill"
            unicode="&#xF25D;"
            horiz-adv-x="1200" d="M700 487.4V100H200A400 400 0 0 0 700 487.4000000000001zM600 550C434.25 550 300 684.25 300 850S434.25 1150 600 1150S900 1015.75 900 850S765.75 550 600 550zM900 350V500H1000V350H1150V250H1000V100H900V250H750V350H900z" /><glyph glyph-name="gift-2-line"
            unicode="&#xEDB9;"
            horiz-adv-x="1200" d="M725 1100A175 175 0 0 0 883.15 849.95L1050 850A50 50 0 0 0 1100 800V600A50 50 0 0 0 1050 550H1000V150A50 50 0 0 0 950 100H250A50 50 0 0 0 200 150V550H150A50 50 0 0 0 100 600V800A50 50 0 0 0 150 850L316.85 849.95A175 175 0 0 0 600.05 1047.45A174 174 0 0 0 725 1100zM900 550H300V200H900V550zM1000 750H200V650H1000V750zM475 1000A75 75 0 0 1 467.8 850.3499999999999L475 850H550V925A75 75 0 0 1 482.2 999.65L475 1000zM725 1000L717.8 999.65A75 75 0 0 1 650.3 932.2L650 925V850H725L732.2 850.3499999999999A75 75 0 0 1 732.2 999.65L725 1000z" /><glyph glyph-name="gift-2-fill"
            unicode="&#xEDB8;"
            horiz-adv-x="1200" d="M1000 550V200A50 50 0 0 0 950 150H250A50 50 0 0 0 200 200V550H1000zM725 1100A175 175 0 0 0 883.15 849.95L1050 850A50 50 0 0 0 1100 800V650A50 50 0 0 0 1050 600H150A50 50 0 0 0 100 650V800A50 50 0 0 0 150 850L316.85 849.95A175 175 0 0 0 600.05 1047.45A174 174 0 0 0 725 1100zM475 1000A75 75 0 0 1 467.8 850.3499999999999L475 850H550V925A75 75 0 0 1 482.2 999.65L475 1000zM725 1000L717.8 999.65A75 75 0 0 1 650.3 932.2L650 925V850H725L732.2 850.3499999999999A75 75 0 0 1 732.2 999.65L725 1000z" /><glyph glyph-name="user-heart-line"
            unicode="&#xF263;"
            horiz-adv-x="1200" d="M892.0500000000001 417.05L900.85 408.2L909.75 417.05A112.5 112.5 0 0 0 1068.85 257.95L900.85 89.9999999999998L732.9499999999999 257.95A112.5 112.5 0 0 0 892.0499999999998 417.05zM600 500V400A300 300 0 0 1 300 100H200A400 400 0 0 0 587.5 499.8000000000001L600 500zM600 1150C765.75 1150 900 1015.75 900 850A299.90000000000003 299.90000000000003 0 0 0 611.25 550.1999999999999L600 550C434.25 550 300 684.25 300 850A299.90000000000003 299.90000000000003 0 0 0 588.75 1149.8L600 1150zM600 1050C489.4999999999999 1050 400 960.5 400 850S489.4999999999999 650 600 650S800 739.5 800 850S710.5 1050 600 1050z" /><glyph glyph-name="user-heart-fill"
            unicode="&#xF262;"
            horiz-adv-x="1200" d="M892.0500000000001 417.05L900.85 408.2L909.75 417.05A112.5 112.5 0 0 0 1068.85 257.95L900.85 89.9999999999998L732.9499999999999 257.95A112.5 112.5 0 0 0 892.0499999999998 417.05zM600 500V100H200A400 400 0 0 0 587.5 499.8000000000001L600 500zM600 1150C765.75 1150 900 1015.75 900 850S765.75 550 600 550S300 684.25 300 850S434.25 1150 600 1150z" /><glyph glyph-name="empathize-line"
            unicode="&#xEC98;"
            horiz-adv-x="1200" d="M918.2 651C996.3 572.9499999999999 996.3 446.3 918.2 368.2000000000001L635.35 85.3500000000001C615.85 65.8499999999999 584.15 65.8499999999999 564.6500000000001 85.3500000000001L281.8000000000001 368.2000000000001C203.7000000000001 446.3 203.7000000000001 572.9499999999999 281.8000000000001 651.0500000000001C359.9000000000001 729.1500000000001 486.5500000000001 729.1500000000001 564.6500000000001 651.0500000000001L599.95 615.7L635.35 651.0500000000001C713.45 729.1500000000001 840.1 729.1500000000001 918.2 651.0500000000001zM352.5 580.4C313.5 541.35 313.5 478 352.5 438.9500000000001L600 191.4500000000001L847.5 438.9500000000001C886.5 478 886.5 541.35 847.5 580.4C808.45 619.4 745.0999999999999 619.4 706 580.3L599.9 474.4L493.9 580.4C454.9 619.4 391.55 619.4 352.5000000000001 580.4zM600 1150C710.5 1150 800 1060.5 800 950S710.5 750 600 750S400 839.5 400 950S489.4999999999999 1150 600 1150zM600 1050C544.75 1050 500 1005.25 500 950S544.75 850 600 850S700 894.75 700 950S655.25 1050 600 1050z" /><glyph glyph-name="empathize-fill"
            unicode="&#xEC97;"
            horiz-adv-x="1200" d="M918.2 651C996.3 572.9499999999999 996.3 446.3 918.2 368.2000000000001L635.35 85.3500000000001C615.85 65.8499999999999 584.15 65.8499999999999 564.6500000000001 85.3500000000001L281.8000000000001 368.2000000000001C203.7000000000001 446.3 203.7000000000001 572.9499999999999 281.8000000000001 651.0500000000001C359.9000000000001 729.1500000000001 486.5500000000001 729.1500000000001 564.6500000000001 651.0500000000001L599.95 615.7L635.35 651.0500000000001C713.45 729.1500000000001 840.1 729.1500000000001 918.2 651.0500000000001zM600 1150C710.5 1150 800 1060.5 800 950S710.5 750 600 750S400 839.5 400 950S489.4999999999999 1150 600 1150z" /><glyph glyph-name="hearts-line"
            unicode="&#xEE13;"
            horiz-adv-x="1200" d="M962.15 962.15C1035.25 888.85 1062.75 787.5 1044.6499999999999 693.15C1073.05 685.15 1099.95 670 1122.3499999999997 647.75C1192.5499999999997 578.05 1192.5499999999997 465.05 1122.3499999999997 395.4000000000001L850 125L698.9 275L550 125.75L126 550.35C20.85 668.15 24.8 849.05 137.85 962.15C251.1 1075.35 432.25 1079.15 550.05 973.55C667.5 1079 849 1075.5 962.15 962.15zM648.1 576.75C617.3 546.1999999999999 617.3 496.9 648.1 466.35L850 265.9000000000001L1051.9 466.3500000000001C1082.7 496.9000000000001 1082.7 546.2 1051.9 576.7500000000001C1020.7 607.75 969.8 607.75 938.5 576.6500000000001L849.9000000000001 488.95L779.5500000000001 558.75L761.4000000000001 576.75C730.2 607.75 679.3000000000001 607.75 648.1 576.75zM208.6 891.4000000000001C134.1 816.9 130.35 697.65 199 618.85L550 267.3L627.9499999999999 345.4000000000001L577.65 395.4000000000001C507.4499999999999 465.0500000000001 507.4499999999999 578.0500000000001 577.65 647.7500000000001C647.8499999999999 717.4000000000001 761.65 717.4000000000001 831.85 647.7500000000001L850 629.7500000000001L868.15 647.7500000000001C889.4 668.8000000000001 914.65 683.5000000000001 941.4 691.8500000000001C962.2 760.2 945.3 837.45 891.3499999999999 891.5000000000001C816.3499999999999 966.6000000000003 695.3499999999999 969.65 616.8499999999999 899.1500000000001L550.0999999999999 839.2500000000001L483.3 899.1000000000001C404.55 969.7 283.7999999999999 966.6000000000003 208.5999999999999 891.4000000000001z" /><glyph glyph-name="hearts-fill"
            unicode="&#xEE12;"
            horiz-adv-x="1200" d="M868.15 647.75C938.35 717.4000000000001 1052.1499999999999 717.4000000000001 1122.35 647.75C1192.55 578.05 1192.55 465.05 1122.35 395.4000000000001L850 125L577.6500000000001 395.4000000000001C507.45 465.0500000000001 507.45 578.0500000000001 577.6500000000001 647.7500000000001C647.85 717.4000000000001 761.65 717.4000000000001 831.85 647.7500000000001L850 629.7500000000001L868.15 647.7500000000001zM962.15 962.15C1009.15 915 1037.3 856.25 1046.6 795.25C979.95 807.6500000000001 909.6499999999997 795.75 850 759.6000000000001C742.5 824.7500000000001 600.3 811.1000000000001 507.2 718.7C400.65 612.9500000000002 397.7000000000001 442.9500000000001 498.3 333.6500000000001L507.2 324.4000000000002L628.25 204.2000000000002L550 125.75L126 550.35C20.85 668.15 24.8 849.05 137.85 962.15C251.1 1075.35 432.25 1079.15 550.05 973.55C667.5 1079 849 1075.5 962.15 962.15z" /><glyph glyph-name="pulse-line"
            unicode="&#xF035;"
            horiz-adv-x="1200" d="M450 823.05L750 123.05L932.95 550L1150 550L1150 650L867.0500000000001 650L750 376.9500000000001L450 1076.95L267.05 650L50 650L50 550L332.95 550z" /><glyph glyph-name="pulse-fill"
            unicode="&#xF034;"
            horiz-adv-x="1200" d="M450 823.05L750 123.05L932.95 550L1150 550L1150 650L867.0500000000001 650L750 376.9500000000001L450 1076.95L267.05 650L50 650L50 550L332.95 550z" /><glyph glyph-name="heart-line"
            unicode="&#xEE0F;"
            horiz-adv-x="1200" d="M600.05 973.55C717.5 1079 899 1075.5 1012.15 962.15C1125.2500000000002 848.75 1129.15 668.15 1023.9500000000002 550.35L599.9500000000002 125.75L176.0500000000001 550.35C70.8500000000001 668.1500000000001 74.8000000000001 849.0500000000001 187.8500000000001 962.15C301.1000000000001 1075.3500000000001 482.2500000000002 1079.15 600.0500000000001 973.55zM941.35 891.5C866.3499999999999 966.6 745.3499999999999 969.65 666.8499999999999 899.15L600.0999999999999 839.25L533.3 899.1C454.55 969.7 333.7999999999999 966.6 258.6 891.4000000000001C184.0999999999999 816.9 180.3499999999999 697.65 249 618.85L600 267.3L951 618.8000000000001C1019.7 697.6500000000001 1015.95 816.75 941.35 891.5z" /><glyph glyph-name="heart-fill"
            unicode="&#xEE0E;"
            horiz-adv-x="1200" d="M600.05 973.55C717.5 1079 899 1075.5 1012.15 962.15C1125.2500000000002 848.75 1129.15 668.15 1023.9500000000002 550.35L599.9500000000002 125.75L176.0500000000001 550.35C70.8500000000001 668.1500000000001 74.8000000000001 849.0500000000001 187.8500000000001 962.15C301.1000000000001 1075.3500000000001 482.2500000000002 1079.15 600.0500000000001 973.55z" /><glyph glyph-name="service-fill"
            unicode="&#xF0E1;"
            horiz-adv-x="1200" d="M706.0500000000001 676A50 50 0 0 1 635.35 676L600 640.7A100 100 0 1 0 458.6 782.0999999999999L740.1 1063.7A325 325 0 0 0 1058.9499999999998 535.3L953.55 428.55L706.05 676.0500000000001zM158.05 976.6A325.15 325.15 0 0 0 558.5 1023.5L387.85 852.8A200 200 0 0 1 663.5 563.1L670.6999999999999 569.95L882.85 357.85L670.6999999999999 145.7000000000001A100 100 0 0 0 529.3000000000001 145.7000000000001L158 517A325 325 0 0 0 158 976.6z" /><glyph glyph-name="service-line"
            unicode="&#xF0E2;"
            horiz-adv-x="1200" d="M158.05 976.55A325 325 0 0 0 600.05 992.95A325 325 0 0 0 1058.95 535.25L670.7 145.75A100 100 0 0 0 534.7500000000001 140.6499999999999L529.2500000000001 145.6999999999998L141.0500000000001 535.2499999999999A325 325 0 0 0 158.0500000000001 976.55zM228.75 905.85A225 225 0 0 1 221.45 595.35L228.75 587.65L600 216.4L865.1500000000001 481.6L688.4000000000001 658.35L635.4 605.3499999999999A150 150 0 1 0 423.2000000000001 817.45L528.3000000000001 922.6A225.05 225.05 0 0 1 236.4500000000001 913.15L228.7500000000001 905.85zM653.05 764.45A50 50 0 0 0 723.75 764.45L935.85 552.35L971.2499999999998 587.65A225 225 0 0 1 660.6999999999998 913.15L653.0499999999998 905.85L493.9499999999998 746.75A50 50 0 0 1 490.0499999999998 680.4L493.9499999999998 676.0500000000001A50 50 0 0 1 560.2999999999998 672.1500000000001L564.6499999999997 676.0500000000001L653.0499999999998 764.45z" /><glyph glyph-name="home-heart-line"
            unicode="&#xEE2A;"
            horiz-adv-x="1200" d="M1000 200A50 50 0 0 0 950 150H250A50 50 0 0 0 200 200V650H50L566.35 1119.4A50 50 0 0 0 633.65 1119.4L1150 650H1000V200zM900 250V742.15L600 1014.85L300 742.15V250H900zM600 350L432.05 517.95A112.5 112.5 0 1 0 591.15 677.0500000000001L600 668.2L608.85 677.0500000000001A112.5 112.5 0 1 0 767.95 517.95L600 350z" /><glyph glyph-name="home-heart-fill"
            unicode="&#xEE29;"
            horiz-adv-x="1200" d="M1000 200A50 50 0 0 0 950 150H250A50 50 0 0 0 200 200V650H50L566.35 1119.4A50 50 0 0 0 633.65 1119.4L1150 650H1000V200zM600 350L767.95 517.95A112.5 112.5 0 1 1 608.85 677.0500000000001L600 668.2L591.15 677.0500000000001A112.5 112.5 0 1 1 432.05 517.95L600 350z" /><glyph glyph-name="arrow-up-s-line"
            unicode="&#xEA78;"
            horiz-adv-x="1200" d="M600 658.6L352.5 411.1L281.8 481.8000000000001L600 800L918.2 481.8L847.5 411.1z" /><glyph glyph-name="arrow-down-s-line"
            unicode="&#xEA4E;"
            horiz-adv-x="1200" d="M600 541.4L847.5 788.8999999999999L918.2 718.1999999999999L600 400L281.8 718.2L352.5 788.9000000000001z" /><glyph glyph-name="arrow-right-s-line"
            unicode="&#xEA6E;"
            horiz-adv-x="1200" d="M658.6 600L411.1000000000001 847.5L481.8000000000001 918.2L800 600L481.8 281.8L411.1 352.5z" /><glyph glyph-name="arrow-left-s-line"
            unicode="&#xEA64;"
            horiz-adv-x="1200" d="M541.4 600L788.9 352.5L718.1999999999999 281.8L400 600L718.2 918.2L788.9 847.5z" /><glyph glyph-name="group-2-line"
            unicode="&#xEDE1;"
            horiz-adv-x="1200" d="M477.5000000000001 625A112.5 112.5 0 1 0 477.5000000000001 850A112.5 112.5 0 0 0 477.5000000000001 625zM500 212.6000000000001V380.0000000000001C500 404.4000000000001 507.2 426.85 520.2 446.9000000000001A323.65000000000003 323.65000000000003 0 0 1 268.55 376.0500000000001A400.6 400.6 0 0 1 500 212.5500000000001zM222.65 467A423.09999999999997 423.09999999999997 0 0 0 475 550C527.15 550 577.15 540.6 623.35 523.4C667.25 540.55 719.6 550 775 550C858 550 934.2499999999998 528.8000000000001 985.3 492.1999999999999A400 400 0 1 1 222.65 467zM943.95 395.7000000000001C924.3 422.3499999999999 858.55 450 775 450C674.7 450 600 410.15 600 380.0000000000001V200A399.80000000000007 399.80000000000007 0 0 1 944 395.7000000000001zM600 100C323.85 100 100 323.85 100 600S323.85 1100 600 1100S1100 876.15 1100 600S876.15 100 600 100zM775 575A100 100 0 1 0 775 775A100 100 0 0 0 775 575z" /><glyph glyph-name="group-2-fill"
            unicode="&#xEDE0;"
            horiz-adv-x="1200" d="M500 212.5999999999999V380.0000000000001C500 444.1500000000001 549.75 494.6 623.35 523.4000000000001A424.09999999999997 424.09999999999997 0 0 1 475 550C380.5 550 293.2 519.15 222.65 467A400.84999999999997 400.84999999999997 0 0 1 500 212.5999999999999zM944.0000000000002 395.7C924.25 422.3499999999999 858.5000000000001 450 775 450C674.7 450 600 410.15 600 380.0000000000001V200A399.80000000000007 399.80000000000007 0 0 1 944 395.7000000000001zM477.5000000000001 625A112.5 112.5 0 1 1 477.5000000000001 850A112.5 112.5 0 0 1 477.5000000000001 625zM775 575A100 100 0 1 1 775 775A100 100 0 0 1 775 575zM600 100C323.85 100 100 323.85 100 600S323.85 1100 600 1100S1100 876.15 1100 600S876.15 100 600 100z" /><glyph glyph-name="team-line"
            unicode="&#xF1EE;"
            horiz-adv-x="1200" d="M600 650A250 250 0 0 0 850 400V100H750V400A150 150 0 0 1 608.8 549.75L600 550A150 150 0 0 1 450.25 408.8L450 400V100H350V400A250 250 0 0 0 600 650zM275 500C288.95 500 302.5 498.35 315.5 495.3000000000001A297.35 297.35 0 0 1 300.4500000000001 416.5500000000001L300 400V395.7000000000001A74.60000000000001 74.60000000000001 0 0 1 282.2 399.7000000000001L275 400A75 75 0 0 1 200.35 332.2L200 325V100H100V325A175 175 0 0 0 275 500zM925 500A175 175 0 0 0 1100 325V100H1000V325A75 75 0 0 1 932.2 399.65L925 400C916.25 400 907.85 398.5 900 395.75V400C900 433.3000000000001 894.6 465.3000000000001 884.55 495.2C897.5 498.35 911.05 500 925 500zM275 800A125 125 0 1 0 275 550A125 125 0 0 0 275 800zM925 800A125 125 0 1 0 925 550A125 125 0 0 0 925 800zM275 700A25 25 0 1 1 275 650A25 25 0 0 1 275 700zM925 700A25 25 0 1 1 925 650A25 25 0 0 1 925 700zM600 1100A200 200 0 1 0 600 700A200 200 0 0 0 600 1100zM600 1000A100 100 0 1 1 600 800A100 100 0 0 1 600 1000z" /><glyph glyph-name="team-fill"
            unicode="&#xF1ED;"
            horiz-adv-x="1200" d="M600 650A250 250 0 0 0 850 400V100H350V400A250 250 0 0 0 600 650zM264.4000000000001 499.7A349.15000000000003 349.15000000000003 0 0 1 250.4 417.2L250 400V100H100V325A175 175 0 0 0 255.95 499L264.45 499.7zM935.6 499.7A175.04999999999998 175.04999999999998 0 0 0 1100 325V100H950V400C950 434.65 944.9999999999998 468.1 935.6 499.7zM275 800A125 125 0 1 0 275 550A125 125 0 0 0 275 800zM925 800A125 125 0 1 0 925 550A125 125 0 0 0 925 800zM600 1100A200 200 0 1 0 600 700A200 200 0 0 0 600 1100z" /><glyph glyph-name="building-line"
            unicode="&#xEB0F;"
            horiz-adv-x="1200" d="M1050 250H1150V150H50V250H150V1000A50 50 0 0 0 200 1050H700A50 50 0 0 0 750 1000V250H950V650H850V750H1000A50 50 0 0 0 1050 700V250zM250 950V250H650V950H250zM350 650H550V550H350V650zM350 850H550V750H350V850z" /><glyph glyph-name="building-fill"
            unicode="&#xEB0E;"
            horiz-adv-x="1200" d="M1050 250H1150V150H50V250H150V1000A50 50 0 0 0 200 1050H700A50 50 0 0 0 750 1000V250H850V750H1000A50 50 0 0 0 1050 700V250zM350 650V550H550V650H350zM350 850V750H550V850H350z" /><glyph glyph-name="bank-card-line"
            unicode="&#xEA92;"
            horiz-adv-x="1200" d="M150 1050H1050A50 50 0 0 0 1100 1000V200A50 50 0 0 0 1050 150H150A50 50 0 0 0 100 200V1000A50 50 0 0 0 150 1050zM1000 650H200V250H1000V650zM1000 750V950H200V750H1000zM700 450H900V350H700V450z" /><glyph glyph-name="bank-card-fill"
            unicode="&#xEA91;"
            horiz-adv-x="1200" d="M1100 700V200A50 50 0 0 0 1050 150H150A50 50 0 0 0 100 200V700H1100zM1100 800H100V1000A50 50 0 0 0 150 1050H1050A50 50 0 0 0 1100 1000V800zM750 400V300H950V400H750z" /><glyph glyph-name="volume-down-fill"
            unicode="&#xF29B;"
            horiz-adv-x="1200" d="M444.45 400H250A50 50 0 0 0 200 450V750A50 50 0 0 0 250 800H444.45L709.15 1016.6A25 25 0 0 0 750 997.25V202.75A25 25 0 0 0 709.15 183.4L444.5 400zM943.15 370.45L872.05 441.55A199.64999999999998 199.64999999999998 0 0 1 950 600C950 671.5 912.5 734.25 856 769.5999999999999L927.95 841.55A299.54999999999995 299.54999999999995 0 0 0 1050 600C1050 507.9 1008.5000000000002 425.5 943.15 370.45z" /><glyph glyph-name="volume-down-line"
            unicode="&#xF29C;"
            horiz-adv-x="1200" d="M650 839L480.15 700H300V500H480.15L650 361V839zM444.45 400H250A50 50 0 0 0 200 450V750A50 50 0 0 0 250 800H444.45L709.15 1016.6A25 25 0 0 0 750 997.25V202.75A25 25 0 0 0 709.15 183.4L444.5 400zM943.15 370.45L872.05 441.55A199.64999999999998 199.64999999999998 0 0 1 950 600C950 671.5 912.5 734.25 856 769.5999999999999L927.95 841.55A299.54999999999995 299.54999999999995 0 0 0 1050 600C1050 507.9 1008.5000000000002 425.5 943.15 370.45z" /></font>
</defs>
</svg>
